<svg width="82" height="82" viewBox="0 0 82 82" fill="none" xmlns="http://www.w3.org/2000/svg">
<circle cx="40.521" cy="40.5204" r="40.5195" fill="#CDFE94"/>
<path d="M59.3768 19.6634H53.9615V17.8583C53.9615 17.3796 53.7713 16.9204 53.4328 16.5819C53.0943 16.2434 52.6351 16.0532 52.1564 16.0532C51.6776 16.0532 51.2185 16.2434 50.88 16.5819C50.5415 16.9204 50.3513 17.3796 50.3513 17.8583V19.6634H32.3003V17.8583C32.3003 17.3796 32.1101 16.9204 31.7716 16.5819C31.4331 16.2434 30.9739 16.0532 30.4952 16.0532C30.0165 16.0532 29.5573 16.2434 29.2188 16.5819C28.8803 16.9204 28.6901 17.3796 28.6901 17.8583V19.6634H23.2748C22.3173 19.6634 21.3991 20.0438 20.722 20.7208C20.045 21.3979 19.6646 22.3161 19.6646 23.2736V59.3756C19.6646 60.3331 20.045 61.2513 20.722 61.9284C21.3991 62.6054 22.3173 62.9858 23.2748 62.9858H59.3768C60.3343 62.9858 61.2525 62.6054 61.9296 61.9284C62.6066 61.2513 62.987 60.3331 62.987 59.3756V23.2736C62.987 22.3161 62.6066 21.3979 61.9296 20.7208C61.2525 20.0438 60.3343 19.6634 59.3768 19.6634ZM28.6901 23.2736V25.0787C28.6901 25.5575 28.8803 26.0166 29.2188 26.3551C29.5573 26.6936 30.0165 26.8838 30.4952 26.8838C30.9739 26.8838 31.4331 26.6936 31.7716 26.3551C32.1101 26.0166 32.3003 25.5575 32.3003 25.0787V23.2736H50.3513V25.0787C50.3513 25.5575 50.5415 26.0166 50.88 26.3551C51.2185 26.6936 51.6776 26.8838 52.1564 26.8838C52.6351 26.8838 53.0943 26.6936 53.4328 26.3551C53.7713 26.0166 53.9615 25.5575 53.9615 25.0787V23.2736H59.3768V30.494H23.2748V23.2736H28.6901ZM59.3768 59.3756H23.2748V34.1042H59.3768V59.3756Z" fill="#3026C1"/>
</svg>
