<svg width="82" height="82" viewBox="0 0 82 82" fill="none" xmlns="http://www.w3.org/2000/svg">
<circle cx="40.5212" cy="40.5195" r="40.5195" fill="#CDFE94"/>
<mask id="mask0_1_7699" style="mask-type:luminance" maskUnits="userSpaceOnUse" x="15" y="11" width="51" height="60">
<path d="M15.1083 11.5505H65.8767V70.4681H15.1083V11.5505Z" fill="white"/>
</mask>
<g mask="url(#mask0_1_7699)">
<mask id="mask1_1_7699" style="mask-type:luminance" maskUnits="userSpaceOnUse" x="16" y="14" width="48" height="55">
<path d="M16.7828 14.0051H63.79V68.5578H16.7828V14.0051Z" fill="white"/>
</mask>
<g mask="url(#mask1_1_7699)">
<path fill-rule="evenodd" clip-rule="evenodd" d="M32.286 54.2514V63.8543C32.2852 64.0079 32.2921 64.1612 32.3063 64.3145C32.3206 64.4674 32.3425 64.6195 32.372 64.7704C32.4012 64.9214 32.4381 65.0705 32.4819 65.2176C32.5261 65.3651 32.5772 65.5095 32.6356 65.6521C32.6936 65.7942 32.7589 65.9333 32.8307 66.0689C32.9029 66.2049 32.9813 66.3366 33.0662 66.4649C33.1511 66.5928 33.2425 66.7165 33.3393 66.8356C33.4365 66.9547 33.5395 67.0688 33.6478 67.1779C33.7561 67.2866 33.8698 67.3899 33.9881 67.4879C34.1068 67.5855 34.2301 67.6773 34.3577 67.763C34.4852 67.8486 34.6166 67.9277 34.7522 68.0004C34.8874 68.073 35.0261 68.139 35.1682 68.1978C35.31 68.257 35.4544 68.3088 35.6016 68.3538C35.7483 68.3983 35.8973 68.436 36.0479 68.4659C36.1985 68.4959 36.3506 68.5186 36.5035 68.5335C36.6564 68.5489 36.8097 68.5562 36.9634 68.5562C37.117 68.5562 37.2703 68.5489 37.4232 68.5335C37.5761 68.5186 37.7278 68.4959 37.8788 68.4659C38.0294 68.436 38.178 68.3983 38.3252 68.3538C38.4723 68.3088 38.6167 68.257 38.7585 68.1978C38.9006 68.139 39.0393 68.073 39.1745 68.0004C39.3101 67.9277 39.4415 67.8486 39.569 67.763C39.6966 67.6773 39.8199 67.5855 39.9382 67.4879C40.0569 67.3899 40.1706 67.2866 40.2789 67.1779C40.3872 67.0688 40.4898 66.9547 40.587 66.8356C40.6842 66.7165 40.7752 66.5928 40.8605 66.4649C40.9454 66.3366 41.0238 66.2049 41.096 66.0689C41.1678 65.9333 41.2328 65.7942 41.2911 65.6521C41.3495 65.5095 41.4006 65.3647 41.4448 65.2176C41.4886 65.0705 41.5255 64.9214 41.5547 64.7704C41.5839 64.6195 41.6058 64.4674 41.6204 64.3145C41.6346 64.1612 41.6415 64.0079 41.6407 63.8543V56.4041L45.8321 54.1315L47.9619 57.8232C48.0383 57.9557 48.1217 58.084 48.2108 58.2081C48.3003 58.3325 48.3952 58.452 48.4962 58.5672C48.5972 58.6821 48.7036 58.7916 48.8154 58.8961C48.9276 59.0009 49.044 59.0997 49.1658 59.1926C49.2872 59.2856 49.4128 59.3724 49.543 59.4531C49.6728 59.5338 49.8065 59.6079 49.944 59.6755C50.0812 59.7431 50.2214 59.8038 50.3647 59.8576C50.508 59.9114 50.6536 59.9582 50.8015 59.9974C50.949 60.037 51.0984 60.0693 51.2494 60.0942C51.4007 60.1188 51.5525 60.1365 51.705 60.1461C51.8579 60.1561 52.0108 60.1588 52.1637 60.1534C52.3165 60.1484 52.4687 60.1357 52.6204 60.1157C52.7721 60.0958 52.9227 60.0685 53.0714 60.0335C53.2204 59.999 53.3676 59.9567 53.5124 59.9075C53.6572 59.8584 53.7993 59.8023 53.9388 59.7389C54.0782 59.6759 54.2142 59.606 54.3468 59.5292L61.4335 55.4341C61.566 55.3573 61.6947 55.2743 61.8192 55.1852C61.9436 55.0961 62.0635 55.0008 62.1787 54.8998C62.2936 54.7988 62.4035 54.6924 62.5083 54.5806C62.6132 54.4688 62.7119 54.352 62.8053 54.2306C62.8986 54.1092 62.9854 53.9832 63.0665 53.853C63.1476 53.7232 63.2217 53.5891 63.2893 53.452C63.3573 53.3144 63.418 53.1738 63.4722 53.0305C63.5259 52.8873 63.5728 52.7417 63.6124 52.5934C63.6519 52.4455 63.6842 52.2961 63.7092 52.1447C63.7341 51.9937 63.7518 51.8416 63.7618 51.6887C63.7718 51.5358 63.7745 51.3829 63.7695 51.2297C63.7645 51.0764 63.7518 50.9239 63.7318 50.7721C63.7119 50.62 63.6846 50.4694 63.6496 50.3204C63.6151 50.1713 63.5732 50.0242 63.5236 49.879C63.4745 49.7338 63.4184 49.5917 63.3554 49.4518C63.292 49.3124 63.2221 49.1764 63.1456 49.0435C63.0688 48.911 62.9862 48.7823 62.8967 48.6578C62.8076 48.533 62.7127 48.4131 62.6117 48.2982C62.5106 48.183 62.4042 48.0727 62.2924 47.9683C62.1807 47.8634 62.0643 47.7643 61.9425 47.6709C61.8211 47.578 61.6955 47.4908 61.5653 47.4097C61.435 47.329 61.3013 47.2545 61.1642 47.1869C61.0267 47.1189 60.8865 47.0582 60.7432 47.0041C60.5999 46.9503 60.4539 46.9034 60.306 46.8635C60.1581 46.8239 60.0087 46.7916 59.8577 46.7666C59.7064 46.7417 59.5546 46.7244 59.4017 46.714C59.2489 46.704 59.096 46.7017 58.9427 46.7067C58.7898 46.7117 58.6373 46.724 58.4855 46.744C58.3334 46.764 58.1832 46.7916 58.0338 46.8262C57.8847 46.8611 57.7376 46.903 57.5928 46.9522C57.4476 47.0014 57.3055 47.0578 57.166 47.1208C57.0262 47.1842 56.8902 47.2541 56.7577 47.3306L53.7214 49.0846L52.8213 47.523C52.9542 47.0332 53.0395 46.535 53.0764 46.0287C53.1133 45.5224 53.1014 45.0172 53.0407 44.5132C52.98 44.0092 52.8716 43.5156 52.7157 43.0324C52.5593 42.5495 52.3584 42.0858 52.1126 41.6414L45.3666 29.4074L46.4694 28.7705L51.7365 30.1834C51.8606 30.2165 51.9858 30.2433 52.1122 30.2645C52.2386 30.2852 52.3657 30.2998 52.4936 30.3083C52.6216 30.3167 52.7499 30.3186 52.8778 30.3148C53.0061 30.3106 53.1336 30.2998 53.2608 30.2833C53.3879 30.2664 53.5139 30.2433 53.6388 30.2145C53.7636 30.1853 53.8869 30.15 54.0083 30.1089C54.1297 30.0678 54.2488 30.0205 54.3656 29.9675C54.4824 29.9145 54.5965 29.8561 54.7075 29.792C54.8185 29.7278 54.926 29.6583 55.0302 29.5838C55.1343 29.5089 55.2349 29.4293 55.3313 29.3448C55.4277 29.2603 55.5196 29.1712 55.6071 29.0775C55.6947 28.9837 55.7777 28.8862 55.8557 28.7844C55.9337 28.6826 56.0067 28.5773 56.0743 28.4682C56.1423 28.3595 56.2045 28.2473 56.261 28.1325C56.3178 28.0172 56.3685 27.8997 56.4138 27.7798C56.4592 27.6596 56.4984 27.5378 56.5314 27.4137C56.5644 27.29 56.5917 27.1648 56.6125 27.038C56.6332 26.9116 56.6482 26.7841 56.6562 26.6562C56.6647 26.5283 56.667 26.4003 56.6628 26.272C56.6586 26.1437 56.6482 26.0162 56.6313 25.889C56.6144 25.7619 56.5917 25.6359 56.5625 25.5107C56.5333 25.3858 56.4984 25.2625 56.4569 25.1411C56.4158 25.0197 56.3685 24.9006 56.3159 24.7839C56.2629 24.6671 56.2045 24.553 56.1403 24.442C56.0762 24.3309 56.0067 24.223 55.9321 24.1189C55.8572 24.0148 55.7777 23.9141 55.6932 23.8177C55.6087 23.7213 55.5196 23.6295 55.4258 23.5415C55.3325 23.4539 55.2349 23.371 55.1331 23.293C55.0313 23.215 54.926 23.142 54.817 23.0744C54.7082 23.0064 54.5965 22.9442 54.4812 22.8877C54.3663 22.8309 54.2488 22.7798 54.1289 22.7348C54.0087 22.6895 53.8869 22.6503 53.7629 22.6173L47.668 20.9839C47.3038 20.8805 46.9327 20.8152 46.5547 20.788C46.1771 20.7603 45.8006 20.7711 45.4249 20.8206C45.0496 20.8698 44.6832 20.9566 44.3251 21.0807C43.9675 21.2051 43.626 21.3642 43.3006 21.5578L38.5795 24.2845C38.6951 23.999 38.7934 23.7079 38.8733 23.4105C38.9052 23.2926 38.934 23.1735 38.9598 23.054C38.9855 22.9346 39.0082 22.8147 39.0281 22.6941C39.0481 22.5735 39.065 22.4525 39.0788 22.3307C39.0931 22.2093 39.1038 22.0875 39.1119 21.9658C39.1199 21.8436 39.1249 21.7214 39.1269 21.5993C39.1288 21.4771 39.128 21.355 39.1238 21.2324C39.1199 21.1103 39.113 20.9885 39.103 20.8663C39.0931 20.7446 39.08 20.6232 39.0639 20.5018C39.0481 20.3808 39.0293 20.2598 39.0074 20.1395C38.9855 20.0193 38.9605 19.8998 38.9329 19.7807C38.9048 19.6616 38.8745 19.5433 38.8407 19.4258C38.8073 19.3082 38.7708 19.1914 38.7316 19.0758C38.6924 18.9598 38.6501 18.8453 38.6052 18.7316C38.5602 18.6179 38.5126 18.5054 38.4623 18.394C38.4116 18.2826 38.3586 18.1723 38.3029 18.0636C38.2468 17.9549 38.1884 17.8477 38.1273 17.7417C38.0662 17.636 38.0025 17.5316 37.9364 17.429C37.8699 17.326 37.8012 17.225 37.7301 17.1255C37.659 17.0264 37.5853 16.9288 37.5092 16.8328C37.4335 16.7371 37.3552 16.6434 37.2745 16.5512C37.1938 16.4594 37.1112 16.3695 37.0264 16.2815C36.9411 16.194 36.8543 16.1083 36.7647 16.0245C36.6756 15.9408 36.5846 15.8597 36.4912 15.7806C36.3983 15.7015 36.303 15.6246 36.2062 15.5501C36.109 15.476 36.0103 15.4038 35.91 15.3342C35.8094 15.2647 35.7072 15.1975 35.6035 15.1329C35.4998 15.0684 35.3945 15.0066 35.2877 14.947C35.1805 14.8879 35.0726 14.831 34.9627 14.7768C34.8532 14.7231 34.7422 14.6716 34.6304 14.6228C34.5183 14.5744 34.4049 14.5283 34.2905 14.4853C34.176 14.4422 34.0607 14.4019 33.9443 14.3646C33.8279 14.3274 33.7108 14.2928 33.5928 14.2609C33.4745 14.2294 33.3558 14.2006 33.2364 14.1749C33.1169 14.1491 32.997 14.1261 32.8764 14.1065C32.7558 14.0865 32.6348 14.0696 32.5134 14.0554C32.392 14.0416 32.2702 14.0304 32.1485 14.0228C32.0263 14.0147 31.9045 14.0097 31.782 14.0078C31.6598 14.0055 31.5377 14.0066 31.4155 14.0105C31.2933 14.0147 31.1716 14.0216 31.0498 14.0316C30.928 14.0416 30.8062 14.0546 30.6852 14.0704C30.5642 14.0865 30.4432 14.1053 30.323 14.1272C30.2028 14.1491 30.0833 14.1741 29.9642 14.2018C29.8451 14.2294 29.7268 14.2602 29.6092 14.294C29.4921 14.3274 29.3753 14.3639 29.2597 14.4031C29.1437 14.4422 29.0292 14.4845 28.9155 14.5294C28.8018 14.5744 28.6892 14.622 28.5782 14.6727C28.4668 14.7231 28.3565 14.7761 28.2478 14.8322C28.1391 14.8879 28.0319 14.9462 27.9263 15.0077C27.8203 15.0688 27.7162 15.1326 27.6132 15.1986C27.5107 15.2647 27.4096 15.3335 27.3101 15.4049C27.211 15.476 27.1134 15.5497 27.0178 15.6258C26.9218 15.7019 26.828 15.7798 26.7362 15.8605C26.6444 15.9412 26.5545 16.0242 26.4665 16.1091C26.379 16.194 26.2933 16.2812 26.2095 16.3707C26.1262 16.4598 26.0448 16.5508 25.9656 16.6442C25.8865 16.7375 25.81 16.8324 25.7355 16.9296C25.661 17.0264 25.5892 17.1251 25.5196 17.2258C25.4501 17.3264 25.3829 17.4286 25.3183 17.5323C25.2538 17.636 25.1919 17.7417 25.1328 17.8485C25.0732 17.9553 25.0164 18.0636 24.9626 18.1731C24.9084 18.2829 24.857 18.3936 24.8086 18.5057C24.7598 18.6179 24.7141 18.7312 24.671 18.8457C24.628 18.9602 24.5877 19.0758 24.5504 19.1922C24.5128 19.3086 24.4786 19.4258 24.4467 19.5437C24.4152 19.662 24.3864 19.7807 24.3607 19.9002C24.3349 20.0197 24.3119 20.1399 24.2923 20.2605C24.2723 20.3812 24.2554 20.5022 24.2412 20.6235C24.2274 20.7449 24.2162 20.8667 24.2085 20.9889C24.2005 21.1106 24.1955 21.2328 24.1935 21.355C24.1912 21.4775 24.1924 21.5997 24.1962 21.7218C24.2005 21.844 24.2074 21.9661 24.2174 22.0879C24.2274 22.2097 24.2404 22.3311 24.2562 22.4525C24.2723 22.5739 24.2911 22.6945 24.313 22.8147C24.3349 22.935 24.3599 23.0548 24.3875 23.1739C24.4152 23.293 24.4459 23.4113 24.4794 23.5288C24.5132 23.6464 24.5493 23.7628 24.5888 23.8788C24.628 23.9944 24.6703 24.1093 24.7148 24.223C24.7598 24.3367 24.8078 24.4493 24.8581 24.5607C24.9084 24.6721 24.9615 24.7819 25.0175 24.8906C25.0732 24.9994 25.1316 25.1069 25.1927 25.2126C25.2542 25.3186 25.3176 25.4227 25.384 25.5256C25.4501 25.6282 25.5189 25.7296 25.5899 25.8287C25.6614 25.9282 25.7347 26.0258 25.8108 26.1215C25.8869 26.2175 25.9648 26.3112 26.0455 26.403C26.1262 26.4948 26.2092 26.5847 26.2941 26.6727C26.379 26.7607 26.4662 26.8463 26.5553 26.9297C26.6444 27.0134 26.7358 27.0949 26.8288 27.174C26.9221 27.2531 27.017 27.3296 27.1142 27.4041C27.211 27.4786 27.3097 27.5505 27.4104 27.62C27.5107 27.6899 27.6128 27.7568 27.7166 27.8213C27.8203 27.8858 27.9259 27.9481 28.0327 28.0072C28.1395 28.0668 28.2474 28.1236 28.3573 28.1774C28.4668 28.2316 28.5778 28.283 28.69 28.3314C28.8022 28.3802 28.9151 28.426 29.0296 28.469C29.144 28.5124 29.2593 28.5523 29.3757 28.59C29.4921 28.6272 29.6092 28.6618 29.7272 28.6933C30.3637 28.8646 31.0114 28.9503 31.6702 28.9507C32.0543 28.9503 32.4358 28.9203 32.815 28.8604C32.228 30.0616 31.9671 31.8087 32.2775 33.4329L29.6703 36.0413H24.0072C23.8789 36.0413 23.751 36.0478 23.6235 36.0605C23.4956 36.0728 23.3692 36.0916 23.2432 36.1166C23.1176 36.1419 22.9931 36.173 22.8705 36.2103C22.7476 36.2476 22.627 36.2906 22.5087 36.3398C22.3904 36.3889 22.2744 36.4435 22.1614 36.5042C22.0481 36.5645 21.9382 36.6306 21.8318 36.7016C21.725 36.7731 21.6221 36.8491 21.523 36.9306C21.4238 37.012 21.329 37.0981 21.2383 37.1887C21.1476 37.2794 21.0616 37.3746 20.9802 37.4738C20.8987 37.5729 20.8227 37.6758 20.7512 37.7826C20.6801 37.889 20.6141 37.9989 20.5538 38.1122C20.4934 38.2251 20.4385 38.3412 20.3893 38.4599C20.3402 38.5782 20.2971 38.6988 20.2599 38.8217C20.2226 38.9443 20.1915 39.0687 20.1665 39.1947C20.1416 39.3203 20.1227 39.4471 20.1101 39.575C20.0978 39.7026 20.0912 39.8305 20.0912 39.9588C20.0912 40.0871 20.0978 40.215 20.1101 40.3429C20.1227 40.4705 20.1416 40.5973 20.1665 40.7233C20.1915 40.8489 20.2226 40.9733 20.2599 41.0959C20.2971 41.2188 20.3402 41.3394 20.3893 41.4577C20.4385 41.5764 20.4934 41.6925 20.5538 41.8054C20.6141 41.9187 20.6801 42.0286 20.7512 42.1354C20.8227 42.2418 20.8987 42.3447 20.9802 42.4438C21.0616 42.543 21.1476 42.6382 21.2383 42.7289C21.329 42.8195 21.4238 42.9056 21.523 42.987C21.6221 43.0685 21.725 43.1445 21.8318 43.216C21.9382 43.2874 22.0481 43.3531 22.1614 43.4138C22.2744 43.4741 22.3904 43.5291 22.5087 43.5778C22.627 43.627 22.7476 43.6704 22.8705 43.7077C22.9931 43.7446 23.1176 43.7761 23.2432 43.801C23.3692 43.826 23.4956 43.8448 23.6235 43.8575C23.751 43.8698 23.8789 43.8763 24.0072 43.8763H30.5316C30.91 43.8817 31.2849 43.8487 31.6567 43.7772C32.0286 43.7062 32.3893 43.5982 32.7393 43.4534C33.0888 43.3086 33.4204 43.1299 33.7338 42.9175C34.0469 42.7047 34.3358 42.4631 34.5997 42.1915L35.9723 40.8162L39.2959 46.8796L35.1621 49.2674C34.942 49.3904 34.7315 49.5279 34.5298 49.6792C34.3285 49.8306 34.138 49.9946 33.9586 50.1717C33.7792 50.3488 33.6124 50.537 33.4584 50.7368C33.3044 50.9362 33.1641 51.1451 33.0381 51.3633C32.9121 51.5815 32.8015 51.8074 32.7059 52.0406C32.6102 52.2742 32.5307 52.5127 32.4669 52.7566C32.4035 53.0006 32.3567 53.2476 32.3263 53.4977C32.296 53.7481 32.2825 53.9994 32.286 54.2514ZM52.7687 50.5263C52.794 50.5701 52.8236 50.6112 52.857 50.6492C52.8905 50.6876 52.9269 50.7222 52.9673 50.7529C53.0076 50.7841 53.0506 50.8106 53.096 50.8332C53.1413 50.8555 53.1886 50.8736 53.2377 50.8866C53.2869 50.8997 53.3364 50.9081 53.3872 50.9112C53.4379 50.9147 53.4882 50.9131 53.5385 50.9066C53.5888 50.8997 53.638 50.8885 53.686 50.872C53.734 50.8559 53.7801 50.8348 53.8243 50.8094L57.5302 48.6693C57.6189 48.6182 57.71 48.5714 57.8033 48.5291C57.8967 48.4869 57.9919 48.4492 58.0891 48.4162C58.1863 48.3835 58.2846 48.3551 58.3845 48.332C58.4844 48.3086 58.585 48.2906 58.6868 48.2771C58.7886 48.2637 58.8904 48.2552 58.993 48.2521C59.0956 48.2487 59.1978 48.2506 59.3003 48.2571C59.4025 48.264 59.5043 48.2756 59.6053 48.2925C59.7068 48.309 59.8066 48.3309 59.9057 48.3574C60.0049 48.3839 60.102 48.4154 60.1981 48.4515C60.2941 48.4876 60.3882 48.5283 60.48 48.5737C60.5719 48.619 60.6614 48.6689 60.7486 48.7231C60.8358 48.7773 60.9199 48.8357 61.0009 48.8979C61.0824 48.9605 61.1604 49.027 61.2353 49.0969C61.3102 49.1672 61.3812 49.2406 61.4489 49.3178C61.5165 49.395 61.5802 49.4753 61.6398 49.5586C61.6997 49.642 61.755 49.728 61.8065 49.8168C61.8576 49.9055 61.9045 49.9969 61.9467 50.0903C61.989 50.1836 62.0266 50.2789 62.0597 50.3761C62.0927 50.4733 62.1207 50.5716 62.1442 50.6715C62.1672 50.7714 62.1857 50.8724 62.1991 50.9738C62.2125 51.0756 62.2206 51.1778 62.2241 51.2804C62.2275 51.3829 62.226 51.4851 62.2191 51.5877C62.2125 51.6899 62.2006 51.7917 62.1841 51.8931C62.1672 51.9941 62.1457 52.0944 62.1192 52.1935C62.0927 52.2926 62.0616 52.3902 62.0255 52.4858C61.9894 52.5819 61.9486 52.676 61.9033 52.7682C61.858 52.86 61.808 52.9495 61.7539 53.0367C61.6997 53.1239 61.6417 53.208 61.5791 53.2895C61.5169 53.3709 61.4504 53.4489 61.3805 53.5238C61.3102 53.5987 61.2368 53.6701 61.1596 53.7378C61.0828 53.8054 61.0025 53.8691 60.9191 53.9287C60.8358 53.9886 60.7497 54.0439 60.661 54.0954L53.5739 58.1908C53.4851 58.2419 53.3941 58.2887 53.3011 58.331C53.2078 58.3733 53.1125 58.4109 53.0157 58.4439C52.9185 58.4766 52.8202 58.505 52.7207 58.5281C52.6208 58.5515 52.5201 58.5699 52.4187 58.5834C52.3173 58.5968 52.2151 58.6049 52.1129 58.6084C52.0104 58.6118 51.9082 58.6103 51.806 58.6037C51.7038 58.5972 51.602 58.5853 51.501 58.5688C51.4 58.5523 51.3001 58.5308 51.201 58.5042C51.1023 58.4781 51.0047 58.4466 50.909 58.4109C50.813 58.3748 50.7193 58.3345 50.6271 58.2891C50.5353 58.2438 50.4457 58.1942 50.3589 58.1405C50.2717 58.0863 50.1876 58.0283 50.1062 57.9661C50.0247 57.9038 49.9467 57.8378 49.8718 57.7678C49.7969 57.6979 49.7259 57.6246 49.6579 57.5477C49.5903 57.4709 49.5265 57.391 49.4666 57.3076C49.407 57.2247 49.3513 57.1386 49.2998 57.0499L47.1909 53.3947L48.9737 52.4278C49.2998 52.2515 49.6121 52.0529 49.9099 51.832C50.2076 51.6115 50.4884 51.3706 50.7519 51.1094C51.0154 50.8486 51.259 50.5705 51.4826 50.2747C51.7065 49.9789 51.9078 49.6689 52.0876 49.3443L52.7687 50.5263ZM26.5307 24.4412C26.4335 24.2733 26.3448 24.1008 26.2649 23.9241C26.1846 23.7474 26.1131 23.5673 26.0509 23.3833C25.9883 23.1996 25.9353 23.0133 25.8911 22.8243C25.8469 22.6353 25.812 22.4448 25.7866 22.2523C25.7612 22.0599 25.7455 21.8666 25.739 21.673C25.7328 21.479 25.7359 21.285 25.7486 21.0914C25.7612 20.8978 25.7831 20.7054 25.8146 20.5137C25.8461 20.3224 25.8872 20.133 25.9376 19.9455C25.9875 19.7581 26.0467 19.5737 26.115 19.392C26.1834 19.2103 26.2606 19.0324 26.3463 18.8584C26.4324 18.6844 26.5265 18.515 26.6287 18.3502C26.7312 18.1854 26.8415 18.0259 26.9598 17.8723C27.0777 17.7182 27.203 17.5704 27.3359 17.429C27.4684 17.2872 27.6075 17.1524 27.7534 17.0245C27.8994 16.8966 28.0511 16.7763 28.209 16.6634C28.3665 16.5504 28.5294 16.4452 28.6977 16.3484C29.146 16.0875 29.6208 15.8897 30.1213 15.7541C30.6222 15.6189 31.132 15.5513 31.6506 15.5505C32.1734 15.5509 32.6866 15.6193 33.1914 15.7549C33.4607 15.8271 33.7238 15.9178 33.9805 16.0272C34.2371 16.1363 34.4845 16.2631 34.7234 16.4075C34.9619 16.5516 35.1894 16.7122 35.4053 16.8885C35.6215 17.0648 35.824 17.2557 36.013 17.4609C36.202 17.666 36.376 17.883 36.5343 18.1128C36.6925 18.3425 36.8343 18.5822 36.9587 18.8315C37.0832 19.0812 37.1896 19.3382 37.278 19.6029C37.3663 19.8675 37.4355 20.1372 37.4858 20.4115C37.5361 20.6862 37.5665 20.9627 37.5776 21.2413C37.5887 21.5201 37.5803 21.7983 37.5522 22.076C37.5242 22.3534 37.4766 22.6276 37.4097 22.8985C37.3429 23.1693 37.2572 23.4343 37.1531 23.6929C37.049 23.9518 36.9269 24.2019 36.7874 24.4435C36.648 24.6851 36.492 24.9156 36.3199 25.135C36.1478 25.3543 35.9611 25.561 35.7598 25.7538C35.5585 25.9471 35.3446 26.1249 35.1183 26.2882C34.942 26.3946 34.7783 26.4979 34.6231 26.6074L34.6208 26.6086C34.453 26.7054 34.2805 26.7937 34.1038 26.8736C33.9271 26.9535 33.7469 27.0246 33.5633 27.0868C33.3796 27.149 33.1933 27.2024 33.0047 27.2462C32.8157 27.29 32.6252 27.325 32.4327 27.35C32.2407 27.3753 32.0474 27.3911 31.8538 27.3972C31.6598 27.4037 31.4662 27.4003 31.273 27.3876C31.0794 27.3749 30.8869 27.3526 30.6956 27.3211C30.5043 27.2896 30.3149 27.2489 30.1278 27.1986C29.9404 27.1483 29.756 27.0891 29.5747 27.0207C29.393 26.9527 29.2151 26.8755 29.0415 26.7899C28.8675 26.7042 28.6981 26.6101 28.5333 26.5079C28.3685 26.4053 28.2094 26.2951 28.0554 26.1772C27.9013 26.0592 27.7538 25.934 27.6121 25.8015C27.4703 25.6689 27.3355 25.5299 27.2076 25.3843C27.0796 25.2383 26.959 25.0869 26.8461 24.9294C26.7328 24.7716 26.6279 24.6091 26.5307 24.4412ZM33.5068 41.0982C33.3147 41.2979 33.1042 41.4758 32.8753 41.6321C32.6463 41.7881 32.4039 41.9191 32.1477 42.0251C31.8918 42.1311 31.6276 42.2099 31.3552 42.261C31.0832 42.3125 30.8086 42.3355 30.5316 42.3298H24.0072C23.9296 42.3298 23.852 42.3259 23.7748 42.3186C23.6976 42.3109 23.6208 42.2994 23.5447 42.2844C23.4687 42.2691 23.3934 42.2502 23.3188 42.228C23.2447 42.2053 23.1717 42.1792 23.0999 42.1492C23.028 42.1196 22.9581 42.0866 22.8898 42.0497C22.821 42.0132 22.7545 41.9733 22.69 41.9302C22.6255 41.8872 22.5632 41.8407 22.5033 41.7916C22.4434 41.7424 22.3858 41.6901 22.3308 41.6352C22.2759 41.5803 22.224 41.523 22.1745 41.4627C22.1253 41.4028 22.0792 41.3406 22.0362 41.276C21.9928 41.2111 21.9532 41.1447 21.9163 41.0763C21.8798 41.0079 21.8468 40.9376 21.8168 40.8658C21.7873 40.7939 21.7611 40.7209 21.7385 40.6468C21.7162 40.5723 21.6974 40.497 21.682 40.4209C21.667 40.3449 21.6555 40.268 21.6478 40.1908C21.6401 40.1136 21.6367 40.036 21.6367 39.9584C21.6367 39.8804 21.6401 39.8032 21.6478 39.7256C21.6555 39.6484 21.667 39.5716 21.682 39.4955C21.6974 39.4195 21.7162 39.3442 21.7385 39.2696C21.7611 39.1955 21.7873 39.1225 21.8168 39.0507C21.8468 38.9788 21.8798 38.9089 21.9163 38.8402C21.9532 38.7718 21.9928 38.7053 22.0362 38.6408C22.0792 38.5763 22.1253 38.5136 22.1745 38.4537C22.224 38.3938 22.2759 38.3362 22.3308 38.2812C22.3858 38.2263 22.4434 38.1741 22.5033 38.1249C22.5632 38.0757 22.6255 38.0296 22.69 37.9862C22.7545 37.9432 22.821 37.9032 22.8898 37.8667C22.9581 37.8302 23.028 37.7968 23.0999 37.7672C23.1717 37.7373 23.2447 37.7112 23.3188 37.6889C23.3934 37.6662 23.4687 37.6474 23.5447 37.632C23.6208 37.617 23.6976 37.6055 23.7748 37.5982C23.852 37.5905 23.9296 37.5867 24.0072 37.5867H29.9903C30.0929 37.5867 30.1912 37.5671 30.2857 37.5279C30.3806 37.4887 30.464 37.4327 30.5366 37.3604L32.8265 35.0694C32.8499 35.1147 32.8726 35.16 32.8972 35.205L35.1986 39.4037L33.5068 41.0982ZM40.723 47.8396C40.7664 47.8146 40.8071 47.7858 40.8448 47.7528C40.8824 47.7197 40.9166 47.6836 40.9473 47.644C40.9781 47.6045 41.0046 47.5626 41.0269 47.518C41.0495 47.4731 41.0676 47.4266 41.081 47.3786C41.0945 47.3302 41.1029 47.2814 41.1071 47.2315C41.111 47.1815 41.1102 47.132 41.1045 47.082C41.0987 47.0325 41.0883 46.9837 41.073 46.9361C41.058 46.8884 41.0384 46.8427 41.0142 46.7989L36.845 39.192C36.8385 39.1794 36.8316 39.1671 36.8247 39.1548L34.2524 34.462C34.0872 34.1566 33.9605 33.8363 33.8717 33.5005C33.8683 33.4863 33.8652 33.4717 33.8606 33.4579C33.4807 32 33.7384 30.3133 34.3131 29.3337C34.7849 28.5316 35.0887 28.1805 35.4763 27.8962C35.6396 27.7994 35.7982 27.6968 35.9523 27.5893C36.013 27.5532 36.0752 27.5163 36.142 27.4775L44.0731 22.8965C44.3105 22.7533 44.5602 22.6357 44.8218 22.5439C45.0834 22.4525 45.352 22.3883 45.6266 22.3522C45.9017 22.3161 46.1775 22.3084 46.4541 22.3292C46.7303 22.3503 47.0019 22.3991 47.2681 22.4763L53.3641 24.1097C53.439 24.13 53.5128 24.1539 53.5854 24.1811C53.658 24.2084 53.729 24.2391 53.799 24.2737C53.8685 24.3079 53.9361 24.3455 54.0022 24.3866C54.0679 24.4274 54.1316 24.4715 54.1935 24.5188C54.2549 24.566 54.3141 24.6164 54.3706 24.6694C54.4274 24.7224 54.4812 24.7781 54.5323 24.8365C54.5838 24.8949 54.6318 24.9556 54.6771 25.019C54.7221 25.082 54.7643 25.1473 54.8031 25.2145C54.8419 25.2817 54.8773 25.3505 54.9091 25.4212C54.9414 25.4922 54.9698 25.5641 54.9948 25.6378C55.0198 25.7112 55.0409 25.7857 55.0586 25.8614C55.0763 25.9371 55.0901 26.0131 55.1005 26.0903C55.1104 26.1672 55.117 26.2444 55.1193 26.322C55.122 26.4 55.1204 26.4772 55.1154 26.5548C55.1104 26.6324 55.1016 26.7092 55.0889 26.786C55.0763 26.8625 55.0601 26.9382 55.0398 27.0134C55.0198 27.0884 54.996 27.1621 54.9687 27.2347C54.9414 27.3077 54.9107 27.3788 54.8761 27.4483C54.8419 27.5178 54.8043 27.5858 54.7632 27.6515C54.7225 27.7176 54.6783 27.7814 54.631 27.8428C54.5838 27.9047 54.5335 27.9638 54.4804 28.0203C54.4274 28.0771 54.3717 28.1309 54.3133 28.1824C54.2549 28.2335 54.1942 28.2815 54.1312 28.3268C54.0682 28.3722 54.0029 28.414 53.9357 28.4528C53.8685 28.4916 53.7997 28.5274 53.729 28.5592C53.6584 28.5911 53.5861 28.6199 53.5128 28.6449C53.439 28.6699 53.3645 28.691 53.2892 28.7087C53.2135 28.7264 53.1371 28.7402 53.0602 28.7502C52.9834 28.7605 52.9062 28.7667 52.8286 28.7694C52.751 28.7721 52.6734 28.7705 52.5958 28.7655C52.5186 28.7605 52.4414 28.7517 52.3649 28.739C52.2881 28.7264 52.2124 28.7098 52.1375 28.6899L46.5613 27.1944C46.4621 27.1675 46.3619 27.161 46.2601 27.1744C46.1587 27.1878 46.0634 27.2201 45.9747 27.2716L43.9387 28.4478C43.8953 28.4728 43.8546 28.502 43.8169 28.535C43.7793 28.5677 43.7451 28.6042 43.7143 28.6438C43.6836 28.6833 43.6571 28.7256 43.6344 28.7701C43.6122 28.8151 43.5941 28.8616 43.5807 28.91C43.5672 28.958 43.5584 29.0072 43.5545 29.0571C43.5507 29.107 43.5518 29.157 43.5576 29.2069C43.5634 29.2565 43.5741 29.3053 43.5891 29.3529C43.6045 29.4009 43.6245 29.4466 43.6487 29.4904L50.7607 42.3874C50.8111 42.4792 50.8591 42.5721 50.9048 42.6663C50.9509 42.76 50.9943 42.8553 51.0354 42.9513C51.0765 43.0477 51.1153 43.1449 51.1514 43.2429C51.1879 43.3408 51.2217 43.4399 51.2532 43.5398C51.2847 43.6393 51.3139 43.74 51.3404 43.841C51.3669 43.942 51.3911 44.0438 51.4126 44.1464C51.4342 44.2486 51.4534 44.3515 51.4699 44.4549C51.4864 44.5582 51.5006 44.6619 51.5118 44.7656C51.5233 44.8697 51.5321 44.9738 51.5386 45.0783C51.5448 45.1828 51.5486 45.2873 51.5498 45.3918C51.5513 45.4967 51.5498 45.6011 51.5459 45.7056C51.5421 45.8101 51.5356 45.9146 51.5264 46.0187C51.5175 46.1228 51.506 46.2269 51.4918 46.3306C51.4776 46.4344 51.461 46.5373 51.4418 46.6403C51.4226 46.7432 51.4007 46.8454 51.3765 46.9472C51.3523 47.049 51.3254 47.15 51.2962 47.2507C51.2671 47.3509 51.2355 47.4508 51.2014 47.5495C51.1676 47.6486 51.1311 47.7466 51.0923 47.8434C51.0531 47.9406 51.012 48.0366 50.9682 48.1319C50.9248 48.2268 50.8787 48.3209 50.8307 48.4139C50.7823 48.5064 50.7319 48.5983 50.6793 48.6885C50.6267 48.7788 50.5717 48.8679 50.5145 48.9555C50.4577 49.0431 50.3985 49.1295 50.337 49.214C50.2756 49.2989 50.2122 49.3819 50.1469 49.4637C50.0816 49.5456 50.0144 49.6255 49.9448 49.7038C49.8757 49.7822 49.8046 49.8586 49.7312 49.9336C49.6582 50.0085 49.5833 50.0814 49.5069 50.1525C49.4301 50.2236 49.3517 50.2927 49.2718 50.3603C49.1915 50.4276 49.1101 50.4929 49.0267 50.5563C48.9433 50.6193 48.8588 50.6807 48.7724 50.7399C48.6864 50.799 48.5988 50.8559 48.5096 50.9108C48.4205 50.9658 48.3302 51.0184 48.2384 51.0687L40.5006 55.2644C40.4395 55.2974 40.3838 55.3381 40.3335 55.3865C40.2835 55.4345 40.2405 55.4887 40.2052 55.5482C40.1694 55.6082 40.1425 55.6716 40.1241 55.7388C40.1057 55.806 40.0965 55.874 40.0965 55.9439V63.8543C40.0968 63.9572 40.0926 64.0602 40.083 64.1627C40.0734 64.2653 40.0588 64.3671 40.0392 64.4681C40.0196 64.5695 39.9954 64.6694 39.9658 64.7681C39.9366 64.8669 39.9025 64.9637 39.8633 65.0589C39.8245 65.1546 39.7807 65.2476 39.7327 65.3386C39.6843 65.4296 39.632 65.5184 39.5752 65.604C39.5179 65.6901 39.4572 65.7727 39.3919 65.8526C39.327 65.9325 39.2582 66.0089 39.1856 66.0819C39.113 66.1553 39.037 66.2244 38.9575 66.2901C38.8779 66.3554 38.7957 66.4169 38.7101 66.4745C38.6248 66.5318 38.5364 66.5852 38.4458 66.6336C38.3551 66.6823 38.2621 66.7265 38.1673 66.7661C38.072 66.8057 37.9752 66.8406 37.8769 66.8706C37.7781 66.9005 37.6786 66.9255 37.5776 66.9459C37.4766 66.9658 37.3748 66.9812 37.2722 66.9912C37.1696 67.0016 37.0671 67.0066 36.9641 67.0066C36.8612 67.0066 36.7582 67.0016 36.656 66.9912C36.5535 66.9812 36.4517 66.9658 36.3506 66.9459C36.2496 66.9255 36.1501 66.9005 36.0514 66.8706C35.953 66.8406 35.8562 66.8057 35.761 66.7661C35.6661 66.7265 35.5731 66.6823 35.4825 66.6336C35.3918 66.5852 35.3035 66.5318 35.2182 66.4745C35.1325 66.4169 35.0499 66.3554 34.9708 66.2901C34.8913 66.2244 34.8152 66.1553 34.7426 66.0819C34.67 66.0089 34.6012 65.9325 34.5363 65.8526C34.471 65.7727 34.4099 65.6901 34.3531 65.604C34.2962 65.5184 34.2436 65.4296 34.1956 65.3386C34.1476 65.2476 34.1038 65.1546 34.065 65.0589C34.0258 64.9637 33.9916 64.8669 33.9624 64.7681C33.9328 64.6694 33.9082 64.5695 33.8886 64.4681C33.8694 64.3671 33.8548 64.2653 33.8452 64.1627C33.8356 64.0602 33.8314 63.9572 33.8318 63.8543V54.2514C33.8295 54.067 33.8391 53.8833 33.8614 53.7001C33.8836 53.5173 33.9178 53.3363 33.9643 53.1581C34.0108 52.9795 34.0688 52.805 34.1387 52.6345C34.2086 52.4639 34.2897 52.2987 34.3819 52.1389C34.4741 51.9795 34.5766 51.8266 34.6892 51.6807C34.8018 51.5347 34.9239 51.3972 35.0549 51.2677C35.1863 51.1382 35.3253 51.018 35.4729 50.9074C35.62 50.7963 35.7744 50.6961 35.935 50.6062L40.723 47.8396ZM24.1574 53.7981C24.0368 53.7981 23.9162 53.8011 23.796 53.8069C23.6753 53.813 23.5551 53.8219 23.4352 53.8334C23.3154 53.8453 23.1959 53.8603 23.0764 53.878C22.9574 53.8956 22.8387 53.916 22.7203 53.9398C22.602 53.9632 22.4845 53.9898 22.3677 54.019C22.2505 54.0481 22.1345 54.0804 22.0193 54.1154C21.9036 54.1503 21.7892 54.1884 21.6758 54.2287C21.5625 54.2694 21.45 54.3128 21.3386 54.3589C21.2272 54.405 21.1169 54.4542 21.0082 54.5057C20.8991 54.5571 20.7915 54.6113 20.6851 54.6682C20.5787 54.725 20.4739 54.7846 20.3705 54.8464C20.2672 54.9083 20.1654 54.9728 20.0651 55.04C19.9649 55.1069 19.8665 55.1764 19.7697 55.2482C19.6729 55.3201 19.5776 55.3942 19.4847 55.4706C19.3913 55.5471 19.3003 55.6258 19.2108 55.7069C19.1217 55.7879 19.0341 55.8709 18.9492 55.9562C18.8639 56.0415 18.7805 56.1287 18.6999 56.2182C18.6188 56.3077 18.5401 56.3987 18.4636 56.4921C18.3872 56.5854 18.313 56.6803 18.2412 56.7771C18.1694 56.8739 18.0998 56.9727 18.033 57.0729C17.9661 57.1732 17.9016 57.275 17.8398 57.3783C17.7775 57.482 17.7184 57.5869 17.6615 57.6929C17.6047 57.7993 17.5505 57.9073 17.499 58.016C17.4472 58.1251 17.3984 58.2353 17.3523 58.3467C17.3062 58.4581 17.2628 58.5707 17.2221 58.684C17.1817 58.7977 17.1437 58.9122 17.1087 59.0275C17.0738 59.1431 17.0419 59.2591 17.0123 59.3763C16.9831 59.493 16.9566 59.6106 16.9332 59.7289C16.9097 59.8472 16.889 59.9659 16.8713 60.0854C16.8537 60.2049 16.8391 60.3243 16.8272 60.4442C16.8152 60.5644 16.8064 60.6847 16.8006 60.8049C16.7945 60.9255 16.7918 61.0461 16.7918 61.1664C16.7918 61.287 16.7945 61.4076 16.8006 61.5283C16.8064 61.6485 16.8152 61.7687 16.8272 61.889C16.8391 62.0088 16.8537 62.1283 16.8713 62.2478C16.889 62.3672 16.9097 62.4859 16.9332 62.6042C16.9566 62.7222 16.9831 62.8401 17.0123 62.9569C17.0419 63.0741 17.0738 63.1901 17.1087 63.3057C17.1437 63.4209 17.1817 63.5354 17.2224 63.6491C17.2628 63.7624 17.3062 63.875 17.3523 63.9864C17.3984 64.0978 17.4472 64.2081 17.499 64.3172C17.5505 64.4259 17.6047 64.5338 17.6615 64.6402C17.7184 64.7462 17.7775 64.8511 17.8398 64.9548C17.9016 65.0582 17.9661 65.16 18.033 65.2602C18.0998 65.3605 18.1694 65.4592 18.2412 65.556C18.313 65.6528 18.3872 65.7477 18.4636 65.8411C18.5401 65.9344 18.6188 66.0255 18.6999 66.115C18.7805 66.2045 18.8639 66.2917 18.9492 66.3769C19.0341 66.4622 19.1217 66.5452 19.2108 66.6263C19.3003 66.7073 19.3913 66.7861 19.4847 66.8625C19.5776 66.939 19.6729 67.0131 19.7697 67.0849C19.8665 67.1568 19.9649 67.2263 20.0651 67.2931C20.1654 67.3604 20.2672 67.4249 20.3705 67.4867C20.4739 67.5486 20.5787 67.6081 20.6851 67.665C20.7915 67.7218 20.8991 67.776 21.0082 67.8275C21.1169 67.879 21.2272 67.9281 21.3386 67.9742C21.45 68.0203 21.5625 68.0637 21.6758 68.1045C21.7896 68.1448 21.9036 68.1828 22.0193 68.2178C22.1345 68.2527 22.2505 68.285 22.3677 68.3142C22.4845 68.3434 22.602 68.3699 22.7203 68.3933C22.8387 68.4172 22.9574 68.4375 23.0764 68.4552C23.1959 68.4729 23.3154 68.4878 23.4352 68.4997C23.5551 68.5113 23.6753 68.5201 23.796 68.5262C23.9162 68.532 24.0368 68.5351 24.1574 68.5351C24.2777 68.5351 24.3983 68.532 24.5185 68.5262C24.6392 68.5201 24.7594 68.5113 24.8792 68.4997C24.9991 68.4878 25.119 68.4729 25.238 68.4552C25.3571 68.4375 25.4758 68.4172 25.5941 68.3933C25.7125 68.3699 25.83 68.3434 25.9468 68.3142C26.064 68.285 26.18 68.2527 26.2952 68.2178C26.4108 68.1828 26.5253 68.1448 26.6386 68.1045C26.752 68.0637 26.8645 68.0203 26.9759 67.9742C27.0873 67.9281 27.1976 67.879 27.3063 67.8275C27.4154 67.776 27.5229 67.7218 27.6294 67.665C27.7358 67.6081 27.8406 67.5486 27.944 67.4867C28.0473 67.4249 28.1491 67.3604 28.2494 67.2931C28.3496 67.2263 28.448 67.1568 28.5448 67.0849C28.6416 67.0131 28.7368 66.939 28.8298 66.8625C28.9232 66.7861 29.0142 66.7073 29.1037 66.6263C29.1928 66.5452 29.2804 66.4622 29.3657 66.3769C29.4506 66.2917 29.534 66.2045 29.6146 66.115C29.6957 66.0255 29.7744 65.9344 29.8509 65.8411C29.9273 65.7477 30.0015 65.6528 30.0733 65.556C30.1451 65.4592 30.2147 65.3605 30.2815 65.2602C30.3483 65.16 30.4129 65.0582 30.4751 64.9548C30.537 64.8515 30.5961 64.7466 30.653 64.6402C30.7098 64.5338 30.764 64.4263 30.8155 64.3172C30.8673 64.2081 30.9161 64.0978 30.9622 63.9864C31.0083 63.875 31.0517 63.7624 31.0924 63.6491C31.1328 63.5354 31.1708 63.4209 31.2058 63.3057C31.2407 63.1901 31.273 63.0741 31.3022 62.9569C31.3314 62.8401 31.3579 62.7226 31.3813 62.6042C31.4047 62.4859 31.4255 62.3672 31.4432 62.2478C31.4608 62.1287 31.4754 62.0088 31.4873 61.889C31.4992 61.7687 31.5081 61.6485 31.5138 61.5283C31.52 61.4076 31.5227 61.2874 31.5227 61.1668C31.5227 61.0461 31.5196 60.9255 31.5135 60.8053C31.5077 60.6847 31.4989 60.5644 31.487 60.4446C31.475 60.3247 31.4601 60.2052 31.4424 60.0858C31.4243 59.9667 31.404 59.848 31.3802 59.7297C31.3567 59.6114 31.3302 59.4938 31.3006 59.377C31.2714 59.2599 31.2392 59.1439 31.2042 59.0286C31.1693 58.913 31.1312 58.7985 31.0905 58.6852C31.0498 58.5719 31.0064 58.4593 30.9603 58.3479C30.9142 58.2365 30.8654 58.1262 30.8139 58.0175C30.7621 57.9084 30.7079 57.8009 30.6511 57.6945C30.5942 57.5881 30.535 57.4832 30.4728 57.3799C30.411 57.2765 30.3464 57.1747 30.2796 57.0745C30.2124 56.9742 30.1432 56.8759 30.0714 56.779C29.9995 56.6822 29.9254 56.587 29.849 56.494C29.7725 56.4007 29.6938 56.3096 29.6127 56.2201C29.532 56.131 29.4487 56.0434 29.3634 55.9581C29.2785 55.8728 29.1913 55.7899 29.1018 55.7088C29.0127 55.6281 28.9212 55.5494 28.8283 55.4729C28.7349 55.3961 28.64 55.322 28.5432 55.2501C28.4464 55.1783 28.3481 55.1092 28.2478 55.0419C28.1476 54.9751 28.0458 54.9106 27.9424 54.8483C27.8391 54.7865 27.7342 54.7269 27.6282 54.6701C27.5218 54.6132 27.4142 54.5591 27.3051 54.5076C27.1964 54.4557 27.0862 54.4069 26.9748 54.3608C26.8638 54.3147 26.7512 54.2713 26.6379 54.2306C26.5242 54.1899 26.4101 54.1519 26.2948 54.1169C26.1792 54.082 26.0632 54.0497 25.9464 54.0201C25.8296 53.9909 25.7121 53.9644 25.5938 53.941C25.4754 53.9172 25.3567 53.8964 25.2377 53.8787C25.1186 53.8611 24.9991 53.8461 24.8789 53.8342C24.759 53.8223 24.6388 53.8134 24.5185 53.8073C24.3983 53.8011 24.2777 53.7981 24.1574 53.7981ZM24.1574 66.9893C23.9665 66.9893 23.7764 66.9797 23.5866 66.9612C23.3972 66.9424 23.2086 66.9144 23.0219 66.8775C22.8348 66.8402 22.65 66.7937 22.4676 66.7384C22.2851 66.6831 22.1061 66.619 21.9298 66.546C21.7538 66.473 21.5817 66.3915 21.4135 66.3017C21.2452 66.2118 21.082 66.1138 20.9237 66.0082C20.765 65.9021 20.6121 65.7884 20.4646 65.6678C20.3175 65.5468 20.1761 65.4189 20.0417 65.284C19.9069 65.1492 19.7789 65.0079 19.6579 64.8603C19.5369 64.7132 19.4236 64.5599 19.3176 64.4017C19.2115 64.243 19.114 64.0798 19.0241 63.9115C18.9342 63.7432 18.8528 63.5711 18.7798 63.3948C18.7068 63.2189 18.6426 63.0395 18.5873 62.857C18.532 62.6745 18.4855 62.4898 18.4486 62.3027C18.4114 62.1156 18.3833 61.927 18.3645 61.7372C18.3461 61.5475 18.3365 61.3573 18.3365 61.1668C18.3365 60.9758 18.3461 60.7857 18.3645 60.5959C18.3833 60.4062 18.4114 60.2179 18.4482 60.0308C18.4855 59.8438 18.532 59.659 18.5873 59.4765C18.6426 59.2941 18.7068 59.1147 18.7794 58.9383C18.8524 58.762 18.9338 58.5899 19.0237 58.4217C19.1136 58.2538 19.2115 58.0901 19.3176 57.9319C19.4232 57.7732 19.5365 57.6199 19.6575 57.4728C19.7785 57.3253 19.9065 57.1843 20.0413 57.0495C20.1761 56.9146 20.3171 56.7867 20.4643 56.6657C20.6118 56.5447 20.7647 56.431 20.9233 56.325C21.0816 56.2193 21.2448 56.1214 21.4131 56.0315C21.5813 55.9416 21.7534 55.8602 21.9294 55.7872C22.1057 55.7142 22.2847 55.65 22.4672 55.5943C22.6497 55.539 22.8344 55.4929 23.0211 55.4557C23.2082 55.4184 23.3964 55.3904 23.5862 55.3719C23.776 55.3531 23.9661 55.3439 24.1567 55.3439C24.3476 55.3439 24.5377 55.3531 24.7275 55.3719C24.9169 55.3904 25.1055 55.4184 25.2922 55.4557C25.4793 55.4929 25.6641 55.539 25.8465 55.5943C26.029 55.6497 26.208 55.7138 26.3843 55.7868C26.5603 55.8598 26.7324 55.9412 26.9006 56.0311C27.0689 56.121 27.2321 56.219 27.3904 56.325C27.5491 56.431 27.702 56.5443 27.8495 56.6653C27.9966 56.7863 28.1376 56.9143 28.2724 57.0491C28.4073 57.1839 28.5352 57.3249 28.6562 57.4724C28.7772 57.6199 28.8905 57.7728 28.9965 57.9315C29.1022 58.0898 29.2001 58.2534 29.29 58.4213C29.3799 58.5895 29.4614 58.7616 29.5343 58.938C29.6073 59.1143 29.6715 59.2937 29.7268 59.4761C29.7821 59.6586 29.8286 59.8434 29.8655 60.0305C29.9027 60.2172 29.9308 60.4058 29.9496 60.5955C29.968 60.7853 29.9776 60.9755 29.9776 61.1664C29.9773 61.3569 29.968 61.5471 29.9492 61.7368C29.9304 61.9266 29.9024 62.1148 29.8647 62.3019C29.8274 62.489 29.7813 62.6734 29.7256 62.8559C29.6703 63.0383 29.6062 63.2177 29.5332 63.3937C29.4602 63.57 29.3788 63.7421 29.2889 63.91C29.199 64.0782 29.101 64.2415 28.9954 64.4001C28.8894 64.5584 28.776 64.7117 28.655 64.8588C28.534 65.0063 28.4061 65.1473 28.2713 65.2821C28.1368 65.417 27.9958 65.5449 27.8483 65.6659C27.7012 65.7869 27.5483 65.9002 27.3896 66.0062C27.2314 66.1123 27.0681 66.2102 26.8999 66.3001C26.732 66.39 26.5599 66.4715 26.384 66.5444C26.208 66.6174 26.0286 66.682 25.8461 66.7373C25.6641 66.7926 25.4793 66.8391 25.2926 66.8763C25.1055 66.9136 24.9173 66.942 24.7275 66.9609C24.5381 66.9797 24.348 66.9889 24.1574 66.9893Z" fill="#3026C1"/>
</g>
<mask id="mask2_1_7699" style="mask-type:luminance" maskUnits="userSpaceOnUse" x="16" y="12" width="49" height="58">
<path d="M16.0463 12.6658H64.9228V69.3562H16.0463V12.6658Z" fill="white"/>
</mask>
<g mask="url(#mask2_1_7699)">
<path fill-rule="evenodd" clip-rule="evenodd" d="M32.1699 54.4893V64.4683C32.1691 64.6281 32.1764 64.7875 32.1914 64.9465C32.206 65.1056 32.229 65.2635 32.2594 65.4202C32.2897 65.5773 32.3278 65.7321 32.3738 65.885C32.4196 66.0383 32.4726 66.1885 32.5333 66.3364C32.5936 66.4843 32.6616 66.6287 32.7361 66.7701C32.811 66.9111 32.8924 67.0482 32.9808 67.1811C33.0692 67.3144 33.164 67.4427 33.2647 67.5664C33.3657 67.6905 33.4725 67.8088 33.5851 67.9221C33.698 68.0355 33.8159 68.1426 33.9389 68.2444C34.0622 68.3459 34.1901 68.4411 34.3226 68.5302C34.4555 68.6194 34.5919 68.7016 34.7329 68.7769C34.8735 68.8525 35.0175 68.9209 35.1651 68.9824C35.3126 69.0435 35.4628 69.0976 35.6153 69.1441C35.7682 69.1906 35.923 69.2294 36.0793 69.2609C36.2361 69.292 36.3939 69.3154 36.5526 69.3312C36.7116 69.3469 36.8711 69.3546 37.0305 69.3546C37.1903 69.3546 37.3497 69.3469 37.5087 69.3312C37.6674 69.3154 37.8253 69.292 37.982 69.2609C38.1384 69.2294 38.2932 69.1906 38.4461 69.1441C38.5986 69.0976 38.7488 69.0435 38.8963 68.9824C39.0438 68.9209 39.1878 68.8525 39.3284 68.7769C39.4694 68.7016 39.6058 68.6194 39.7387 68.5302C39.8712 68.4411 39.9992 68.3459 40.1225 68.2444C40.2454 68.1426 40.3633 68.0355 40.4763 67.9221C40.5888 67.8088 40.6956 67.6905 40.7966 67.5664C40.8973 67.4427 40.9922 67.3144 41.0805 67.1811C41.1689 67.0482 41.2503 66.9111 41.3252 66.7701C41.3998 66.6287 41.4678 66.4843 41.5281 66.3364C41.5888 66.1885 41.6418 66.0383 41.6875 65.885C41.7332 65.7321 41.7716 65.5773 41.802 65.4202C41.8323 65.2635 41.8554 65.1056 41.87 64.9465C41.8849 64.7875 41.8922 64.6281 41.8915 64.4683V56.7266L46.2469 54.3645L48.46 58.2009C48.5399 58.3384 48.6259 58.4717 48.7189 58.6012C48.8119 58.7303 48.9106 58.8547 49.0155 58.9738C49.1207 59.0933 49.2314 59.2074 49.3474 59.3161C49.4638 59.4248 49.5848 59.5274 49.7112 59.6242C49.8375 59.7206 49.9682 59.8109 50.1034 59.895C50.2382 59.9788 50.3773 60.0556 50.5198 60.1259C50.6627 60.1962 50.8083 60.2592 50.9573 60.3153C51.106 60.371 51.2574 60.4194 51.411 60.4605C51.5647 60.5016 51.7199 60.535 51.8766 60.5607C52.0337 60.5869 52.1916 60.6049 52.3502 60.6149C52.5089 60.6253 52.6676 60.628 52.8266 60.6226C52.9856 60.6172 53.1439 60.6041 53.3014 60.5834C53.4589 60.5627 53.6152 60.5342 53.7701 60.4981C53.9249 60.4616 54.0778 60.4182 54.2283 60.3671C54.3789 60.3157 54.5264 60.2573 54.6713 60.1916C54.8161 60.1263 54.9575 60.0537 55.0954 59.9741L62.4594 55.7182C62.5974 55.6387 62.731 55.5522 62.8605 55.4597C62.99 55.3671 63.1144 55.268 63.2339 55.1631C63.3537 55.0582 63.4678 54.9476 63.5769 54.8312C63.6856 54.7152 63.7886 54.5938 63.8854 54.4674C63.9822 54.3414 64.0729 54.2104 64.1566 54.0752C64.2407 53.94 64.318 53.8009 64.3886 53.6584C64.4589 53.5155 64.5219 53.3695 64.578 53.2205C64.6341 53.0714 64.6829 52.9201 64.724 52.7664C64.7655 52.6127 64.7989 52.4572 64.8246 52.3C64.8508 52.1429 64.8688 51.985 64.8792 51.826C64.8899 51.6674 64.8923 51.5083 64.8873 51.3489C64.8819 51.1899 64.8692 51.0312 64.8485 50.8737C64.8273 50.7158 64.7989 50.5591 64.7628 50.4043C64.7267 50.2491 64.6833 50.0962 64.6322 49.9452C64.5807 49.7946 64.5223 49.6467 64.4566 49.5015C64.3909 49.3567 64.3183 49.2154 64.2388 49.0774C64.1593 48.9395 64.0732 48.8059 63.9807 48.6764C63.8877 48.5469 63.789 48.4221 63.6841 48.3026C63.5792 48.1828 63.4686 48.0687 63.3526 47.9596C63.2362 47.8509 63.1152 47.7479 62.9888 47.6511C62.8624 47.5539 62.7318 47.4636 62.5966 47.3795C62.4614 47.2954 62.3227 47.2182 62.1798 47.1475C62.0373 47.0772 61.8913 47.0138 61.7422 46.9577C61.5932 46.9016 61.4418 46.8532 61.2882 46.8117C61.1345 46.7706 60.9793 46.7372 60.8222 46.7111C60.6651 46.6854 60.5072 46.6669 60.3482 46.6565C60.1895 46.6462 60.0305 46.6435 59.8715 46.6489C59.7124 46.6539 59.5541 46.6669 59.3963 46.6877C59.2384 46.7084 59.082 46.7368 58.9268 46.7729C58.772 46.8091 58.6191 46.8528 58.4686 46.9039C58.3176 46.955 58.1697 47.0138 58.0249 47.0795C57.88 47.1452 57.7383 47.2178 57.6008 47.2973L54.4454 49.1201L53.51 47.4971C53.5791 47.2431 53.6356 46.9865 53.6802 46.7272C53.7243 46.4675 53.7562 46.2067 53.775 45.9443C53.7943 45.6816 53.8008 45.4188 53.7946 45.1557C53.7885 44.8929 53.7697 44.6306 53.7382 44.3693C53.7067 44.1081 53.6629 43.8488 53.6064 43.5918C53.5499 43.3348 53.4812 43.0809 53.4001 42.8304C53.3195 42.58 53.2265 42.3341 53.122 42.0929C53.0171 41.8513 52.9011 41.6154 52.7736 41.3853L45.7633 28.672L46.9092 28.0097L52.3829 29.4779C52.5116 29.5125 52.6418 29.5405 52.7732 29.562C52.9046 29.5839 53.0367 29.5993 53.1696 29.6077C53.3025 29.6166 53.4358 29.6189 53.5688 29.6143C53.7021 29.61 53.8346 29.5993 53.9667 29.5816C54.0989 29.5643 54.2299 29.5405 54.3597 29.5102C54.4896 29.4798 54.6175 29.4433 54.7435 29.4007C54.8699 29.3577 54.9936 29.3089 55.115 29.2536C55.2363 29.1986 55.3547 29.1379 55.4699 29.0711C55.5855 29.0046 55.6973 28.9324 55.8056 28.8548C55.914 28.7772 56.0181 28.6942 56.1183 28.6066C56.2186 28.5187 56.3143 28.4261 56.4053 28.3285C56.4963 28.2313 56.5824 28.1299 56.6634 28.0243C56.7445 27.9183 56.8202 27.8088 56.8909 27.6958C56.9612 27.5825 57.0257 27.4661 57.0845 27.3466C57.1436 27.2272 57.1966 27.105 57.2435 26.9802C57.2904 26.8553 57.3311 26.7286 57.3657 26.5999C57.3999 26.4712 57.4283 26.341 57.4498 26.2096C57.4717 26.0778 57.4867 25.9457 57.4955 25.8127C57.5043 25.6798 57.5063 25.5465 57.502 25.4132C57.4978 25.2799 57.4867 25.1474 57.4694 25.0153C57.4521 24.8831 57.4283 24.7521 57.3979 24.6223C57.3676 24.4924 57.3311 24.3645 57.2881 24.2381C57.2454 24.1121 57.1966 23.9881 57.1413 23.8667C57.0864 23.7453 57.0257 23.627 56.9592 23.5113C56.8924 23.3961 56.8202 23.2843 56.7426 23.176C56.665 23.0673 56.5824 22.9632 56.4944 22.8629C56.4068 22.7626 56.3143 22.667 56.2167 22.5759C56.1195 22.4849 56.0181 22.3988 55.9124 22.3174C55.8068 22.2363 55.6973 22.1607 55.584 22.0904C55.4711 22.0197 55.3547 21.9551 55.2352 21.8964C55.1157 21.8372 54.9936 21.7842 54.8687 21.7373C54.7442 21.6905 54.6175 21.6498 54.4888 21.6152L48.155 19.918C47.7762 19.8108 47.3905 19.7428 46.9979 19.714C46.6057 19.6856 46.2143 19.6971 45.824 19.7482C45.4337 19.7997 45.053 19.8896 44.6811 20.0187C44.3093 20.1477 43.9543 20.3129 43.6163 20.5146L38.71 23.3477C38.8306 23.0515 38.9324 22.7488 39.0157 22.4396C39.0484 22.317 39.0784 22.1937 39.1053 22.0692C39.1321 21.9452 39.156 21.8203 39.1763 21.6951C39.1971 21.5698 39.2147 21.4438 39.2293 21.3178C39.2439 21.1915 39.2551 21.0651 39.2635 20.9383C39.2716 20.8115 39.277 20.6844 39.2789 20.5576C39.2812 20.4305 39.28 20.3033 39.2758 20.1765C39.2716 20.0494 39.2643 19.9226 39.2539 19.7959C39.2435 19.6695 39.2301 19.5431 39.2136 19.4171C39.1971 19.2911 39.1775 19.1655 39.1548 19.0406C39.1318 18.9158 39.106 18.7913 39.0772 18.6676C39.0484 18.5439 39.0165 18.421 38.9816 18.2988C38.947 18.1767 38.909 18.0553 38.8682 17.9351C38.8271 17.8148 38.7837 17.6953 38.7369 17.5774C38.6904 17.4591 38.6408 17.3423 38.5882 17.2263C38.5359 17.1107 38.4806 16.9962 38.4226 16.8833C38.3646 16.7703 38.3039 16.6589 38.2402 16.5487C38.1768 16.4388 38.1107 16.3305 38.0419 16.2237C37.9728 16.1169 37.9013 16.0116 37.8276 15.9083C37.7534 15.8053 37.677 15.7039 37.5982 15.6044C37.5191 15.5049 37.4377 15.4074 37.3539 15.3117C37.2702 15.2161 37.1841 15.1227 37.0962 15.0317C37.0078 14.9402 36.9172 14.8511 36.8246 14.7643C36.7316 14.6775 36.6371 14.593 36.5403 14.5108C36.4431 14.4286 36.3444 14.3487 36.2437 14.2714C36.1431 14.1942 36.0405 14.1193 35.936 14.0471C35.8316 13.9745 35.7255 13.905 35.6176 13.8377C35.5096 13.7709 35.4002 13.7064 35.2891 13.6445C35.1781 13.5831 35.0656 13.5239 34.9519 13.4678C34.8378 13.4117 34.7225 13.3583 34.6061 13.3076C34.4897 13.2573 34.3718 13.2097 34.2531 13.1647C34.1344 13.1202 34.0142 13.0783 33.8935 13.0395C33.7725 13.0003 33.6508 12.9646 33.5278 12.9315C33.4053 12.8989 33.282 12.8689 33.1579 12.842C33.0338 12.8155 32.909 12.7917 32.7837 12.771C32.6581 12.7502 32.5325 12.7326 32.4065 12.718C32.2801 12.7037 32.1537 12.6922 32.027 12.6838C31.9002 12.6757 31.7734 12.6703 31.6463 12.6684C31.5195 12.6661 31.3924 12.6673 31.2656 12.6715C31.1388 12.6757 31.012 12.683 30.8853 12.6934C30.7589 12.7037 30.6325 12.7172 30.5065 12.7337C30.3805 12.7502 30.2553 12.7698 30.1304 12.7925C30.0052 12.8155 29.8811 12.8413 29.7574 12.8701C29.6337 12.8989 29.5108 12.9308 29.3886 12.9657C29.2665 13.0007 29.1451 13.0383 29.0249 13.0794C28.9046 13.1202 28.7855 13.164 28.6676 13.2104C28.5493 13.2573 28.4325 13.3069 28.3169 13.3595C28.2012 13.4117 28.0868 13.467 27.9738 13.5251C27.8609 13.5831 27.7495 13.6438 27.6392 13.7075C27.5294 13.7709 27.421 13.837 27.3143 13.9061C27.2075 13.9749 27.1026 14.0463 26.9993 14.1201C26.8959 14.1942 26.7949 14.2707 26.6954 14.3498C26.5959 14.4286 26.4983 14.51 26.4027 14.5937C26.3074 14.6775 26.2141 14.7639 26.1226 14.8523C26.0312 14.9406 25.9425 15.0309 25.8556 15.1239C25.7688 15.2164 25.6843 15.3113 25.6021 15.4081C25.5199 15.5049 25.44 15.6041 25.3628 15.7047C25.2856 15.8053 25.2107 15.9083 25.1384 16.0128C25.0662 16.1169 24.9967 16.2233 24.9295 16.3312C24.8622 16.4392 24.7981 16.5487 24.7362 16.6597C24.6748 16.7707 24.6156 16.8833 24.5595 16.997C24.5035 17.1111 24.4501 17.2263 24.3993 17.3427C24.349 17.4595 24.3014 17.577 24.2564 17.6961C24.2119 17.8152 24.17 17.9351 24.1312 18.0561C24.0924 18.1771 24.0567 18.2988 24.0237 18.4214C23.9906 18.5443 23.961 18.6676 23.9341 18.7917C23.9073 18.9162 23.8834 19.0406 23.8631 19.1662C23.8423 19.2915 23.8247 19.4175 23.8101 19.5435C23.7955 19.6699 23.7843 19.7962 23.7759 19.923C23.7674 20.0498 23.7624 20.1765 23.7601 20.3037C23.7582 20.4309 23.7594 20.5576 23.7636 20.6848C23.7674 20.8119 23.7747 20.9387 23.7851 21.0651C23.7955 21.1918 23.8089 21.3182 23.8258 21.4442C23.8423 21.5702 23.8619 21.6955 23.8846 21.8207C23.9073 21.9455 23.933 22.07 23.9622 22.1937C23.991 22.3174 24.0229 22.4403 24.0575 22.5625C24.0924 22.6846 24.1304 22.806 24.1712 22.9263C24.2119 23.0465 24.2557 23.1656 24.3025 23.2839C24.349 23.4022 24.3986 23.519 24.4508 23.6346C24.5035 23.7507 24.5588 23.8647 24.6168 23.9781C24.6748 24.091 24.7355 24.2024 24.7989 24.3123C24.8626 24.4225 24.9287 24.5309 24.9975 24.6376C25.0662 24.7444 25.1377 24.8493 25.2118 24.9526C25.2856 25.056 25.362 25.1574 25.4412 25.2569C25.5199 25.3564 25.6013 25.454 25.6851 25.5496C25.7688 25.6449 25.8549 25.7386 25.9432 25.8297C26.0316 25.9211 26.1219 26.0102 26.2148 26.097C26.3074 26.1838 26.4023 26.2683 26.4991 26.3506C26.5959 26.4328 26.6946 26.5127 26.7953 26.5899C26.8963 26.6671 26.9989 26.742 27.1034 26.8142C27.2078 26.8868 27.3139 26.9564 27.4218 27.0236C27.5294 27.0904 27.6389 27.155 27.7499 27.2168C27.8609 27.2783 27.9734 27.3374 28.0872 27.3935C28.2012 27.4496 28.3165 27.503 28.4329 27.5537C28.5497 27.604 28.6672 27.6517 28.7859 27.6966C28.905 27.7412 29.0249 27.783 29.1459 27.8218C29.2665 27.861 29.3883 27.8967 29.5112 27.9298C30.1723 28.1073 30.8453 28.1964 31.5303 28.1968C31.929 28.1968 32.3254 28.1656 32.7196 28.1034C32.1099 29.3515 31.8387 31.1674 32.1614 32.8549L29.4516 35.5655H23.5669C23.4336 35.5655 23.3007 35.572 23.1678 35.5851C23.0352 35.5981 22.9035 35.6177 22.7729 35.6438C22.6423 35.67 22.5132 35.7022 22.3857 35.741C22.2581 35.7794 22.1325 35.8244 22.0096 35.8755C21.8863 35.9266 21.766 35.9834 21.6485 36.0464C21.5309 36.109 21.4168 36.1778 21.3062 36.2516C21.1952 36.3257 21.0884 36.4052 20.9854 36.4897C20.8821 36.5742 20.7838 36.6637 20.6893 36.7579C20.5951 36.8524 20.5056 36.9511 20.4211 37.054C20.3366 37.157 20.2575 37.2642 20.1833 37.3748C20.1092 37.4858 20.0408 37.5999 19.9778 37.7175C19.9152 37.835 19.8584 37.9556 19.8073 38.0786C19.7562 38.2019 19.7116 38.3271 19.6728 38.4546C19.634 38.5826 19.6017 38.7116 19.5756 38.8422C19.5499 38.9732 19.5303 39.1046 19.5172 39.2375C19.5042 39.3701 19.4976 39.5034 19.4976 39.6367C19.4976 39.77 19.5042 39.9029 19.5172 40.0354C19.5303 40.1683 19.5499 40.3001 19.5756 40.4307C19.6017 40.5613 19.634 40.6908 19.6728 40.8183C19.7116 40.9458 19.7562 41.0711 19.8073 41.1944C19.8584 41.3177 19.9152 41.4379 19.9778 41.5555C20.0408 41.673 20.1092 41.7875 20.1833 41.8981C20.2575 42.0091 20.3366 42.1159 20.4211 42.2189C20.5056 42.3222 20.5951 42.4209 20.6893 42.5151C20.7838 42.6092 20.8821 42.6987 20.9854 42.7832C21.0884 42.8681 21.1952 42.9472 21.3062 43.0214C21.4168 43.0955 21.5309 43.1639 21.6485 43.2269C21.766 43.2895 21.8863 43.3464 22.0096 43.3974C22.1325 43.4485 22.2581 43.4935 22.3857 43.5319C22.5132 43.5707 22.6423 43.603 22.7729 43.6291C22.9035 43.6552 23.0352 43.6748 23.1678 43.6879C23.3007 43.7009 23.4336 43.7075 23.5669 43.7075H30.3467C30.7401 43.7128 31.13 43.6786 31.5161 43.6049C31.9025 43.5307 32.2774 43.4186 32.6408 43.268C33.0042 43.1174 33.3488 42.9319 33.6746 42.711C33.9999 42.4901 34.3 42.2389 34.5742 41.9565L36.001 40.5275L39.4544 46.8286L35.1589 49.3098C34.9303 49.4378 34.7114 49.5803 34.502 49.7378C34.2927 49.8953 34.0944 50.0658 33.9081 50.2499C33.7218 50.4339 33.5486 50.6294 33.3884 50.8368C33.2282 51.0439 33.0826 51.2609 32.952 51.488C32.821 51.715 32.7058 51.9493 32.6063 52.1917C32.5071 52.4341 32.4242 52.6823 32.3581 52.9358C32.292 53.1893 32.2432 53.446 32.2117 53.706C32.1802 53.9661 32.1664 54.2273 32.1699 54.4893ZM53.4554 50.6179C53.4819 50.6636 53.5123 50.7062 53.5469 50.7462C53.5818 50.7857 53.6202 50.8215 53.6617 50.8537C53.7036 50.886 53.7482 50.9137 53.7954 50.9371C53.8427 50.9605 53.8918 50.979 53.9429 50.9924C53.9936 51.0062 54.0455 51.0147 54.0981 51.0182C54.1507 51.0216 54.2034 51.0201 54.2556 51.0132C54.3079 51.0062 54.359 50.9943 54.4089 50.9774C54.4588 50.9605 54.5065 50.9386 54.5522 50.9125L58.4032 48.6887C58.4954 48.6353 58.5903 48.5865 58.6875 48.5427C58.7843 48.4989 58.8834 48.4597 58.9845 48.4255C59.0851 48.3914 59.1877 48.3622 59.2914 48.338C59.3951 48.3138 59.5 48.2945 59.6056 48.2807C59.7113 48.2669 59.8173 48.2581 59.9237 48.2546C60.0301 48.2511 60.1365 48.2531 60.2429 48.26C60.3493 48.2669 60.455 48.2792 60.5602 48.2969C60.6651 48.3141 60.7692 48.3364 60.8722 48.3641C60.9751 48.3917 61.0761 48.4244 61.176 48.462C61.2759 48.4997 61.3735 48.5419 61.4691 48.5892C61.5644 48.6361 61.6574 48.6879 61.748 48.7444C61.8383 48.8005 61.9259 48.8612 62.0104 48.9261C62.0949 48.991 62.1759 49.0598 62.2539 49.1328C62.3315 49.2057 62.4057 49.2822 62.476 49.3621C62.5463 49.4424 62.6123 49.5257 62.6742 49.6126C62.7364 49.699 62.794 49.7885 62.8474 49.8807C62.9005 49.9733 62.9492 50.0678 62.993 50.165C63.0372 50.2621 63.0764 50.3613 63.1106 50.4619C63.1448 50.5629 63.174 50.6655 63.1982 50.7692C63.2224 50.8729 63.2416 50.9778 63.2554 51.0835C63.2692 51.1891 63.2781 51.2951 63.2815 51.4015C63.285 51.5083 63.2831 51.6147 63.2761 51.7211C63.2692 51.8275 63.2569 51.9332 63.2397 52.0384C63.2224 52.1433 63.2001 52.2474 63.1724 52.3504C63.1448 52.4533 63.1121 52.5547 63.0749 52.6546C63.0372 52.7545 62.995 52.8521 62.9477 52.9477C62.9008 53.0434 62.849 53.1363 62.7929 53.227C62.7364 53.3173 62.6761 53.4049 62.6112 53.4894C62.5463 53.5743 62.4775 53.6553 62.4045 53.7333C62.3319 53.8109 62.2555 53.885 62.1752 53.9553C62.0953 54.0256 62.0119 54.0917 61.9251 54.1539C61.8387 54.2162 61.7492 54.2738 61.657 54.3272L54.2921 58.5828C54.1999 58.6362 54.1054 58.6846 54.0086 58.7287C53.9114 58.7725 53.8127 58.8117 53.712 58.8459C53.611 58.8801 53.5088 58.9093 53.4055 58.9335C53.3018 58.9577 53.1973 58.9769 53.0916 58.9907C52.986 59.0046 52.8804 59.0134 52.774 59.0169C52.6676 59.0207 52.5611 59.0188 52.4551 59.0122C52.3487 59.0053 52.2431 58.993 52.1382 58.9757C52.0333 58.9585 51.9292 58.9362 51.8263 58.9089C51.7237 58.8812 51.6223 58.849 51.5228 58.8117C51.4229 58.7741 51.3253 58.7322 51.2301 58.6849C51.1344 58.6381 51.0415 58.5866 50.9512 58.5305C50.8605 58.4744 50.7729 58.4141 50.6884 58.3496C50.6039 58.2847 50.5229 58.2163 50.4449 58.1437C50.3673 58.0707 50.2931 57.9946 50.2228 57.9147C50.1525 57.8348 50.0861 57.7515 50.0242 57.6654C49.962 57.579 49.904 57.4895 49.8506 57.3977L47.659 53.5988L49.5118 52.5939C49.8506 52.4111 50.1752 52.2048 50.4844 51.9751C50.7941 51.7457 51.0856 51.4953 51.3595 51.2244C51.6334 50.9532 51.8866 50.664 52.119 50.3566C52.3514 50.0493 52.5611 49.727 52.7475 49.3898L53.4554 50.6179ZM26.1891 23.5106C26.0881 23.3362 25.9962 23.1571 25.9129 22.9735C25.8295 22.7899 25.7554 22.6024 25.6905 22.4115C25.6255 22.2206 25.5702 22.027 25.5245 21.8307C25.4784 21.6344 25.4423 21.4362 25.4162 21.236C25.3897 21.0363 25.3732 20.8354 25.3666 20.6341C25.3597 20.4324 25.3632 20.2311 25.3762 20.0298C25.3893 19.8285 25.4123 19.6284 25.4454 19.4294C25.478 19.2304 25.5207 19.0337 25.5725 18.839C25.6248 18.6442 25.6862 18.4521 25.7573 18.2635C25.8284 18.0749 25.9087 17.8901 25.9978 17.7092C26.0869 17.5282 26.1845 17.3523 26.2913 17.181C26.3977 17.0096 26.5122 16.8441 26.6351 16.6843C26.7576 16.5245 26.8879 16.3708 27.0258 16.2237C27.1637 16.0766 27.3085 15.9363 27.4598 15.8034C27.6116 15.6705 27.7691 15.5453 27.9331 15.4281C28.0971 15.3106 28.2662 15.2015 28.441 15.1008C28.9069 14.8296 29.4002 14.6241 29.9207 14.4835C30.4412 14.3429 30.9709 14.2722 31.5099 14.2718C32.0527 14.2722 32.5867 14.3429 33.111 14.4839C33.3911 14.5592 33.6642 14.6533 33.9308 14.767C34.1974 14.8803 34.4548 15.0121 34.7029 15.1623C34.9507 15.3121 35.187 15.4788 35.4117 15.6621C35.636 15.8453 35.8465 16.0435 36.0432 16.2567C36.2395 16.4699 36.4201 16.6958 36.5849 16.9344C36.7493 17.1729 36.8964 17.4218 37.0259 17.6815C37.1553 17.9408 37.266 18.2078 37.3578 18.4828C37.4496 18.7579 37.5214 19.0379 37.5737 19.3234C37.6255 19.6084 37.6574 19.8957 37.6693 20.1854C37.6808 20.4754 37.672 20.7643 37.6428 21.0528C37.6136 21.3413 37.5641 21.6263 37.4945 21.9075C37.425 22.1891 37.3363 22.4641 37.2279 22.733C37.1196 23.0019 36.9928 23.262 36.848 23.5129C36.7028 23.7641 36.5407 24.0034 36.3621 24.2316C36.183 24.4598 35.9891 24.6741 35.7801 24.875C35.5707 25.0756 35.3487 25.2607 35.1132 25.4298C34.93 25.5404 34.7598 25.648 34.5988 25.7617L34.5965 25.7632C34.4217 25.8638 34.2427 25.9557 34.0591 26.0386C33.8755 26.1216 33.6884 26.1957 33.4975 26.2603C33.3066 26.3248 33.1129 26.3801 32.9166 26.4258C32.7204 26.4716 32.5225 26.5073 32.3228 26.5334C32.123 26.5599 31.9225 26.576 31.7208 26.5826C31.5195 26.5891 31.3182 26.586 31.1173 26.5726C30.916 26.5595 30.7163 26.5365 30.5173 26.5038C30.3187 26.4708 30.122 26.4282 29.9272 26.3763C29.7325 26.324 29.5408 26.2626 29.3522 26.1915C29.1635 26.1205 28.9791 26.0405 28.7982 25.9514C28.6177 25.8623 28.4413 25.7647 28.2704 25.6583C28.0991 25.5519 27.9335 25.4374 27.7737 25.3149C27.6139 25.1924 27.4602 25.0621 27.3131 24.9242C27.166 24.7867 27.0258 24.6423 26.8928 24.4909C26.7595 24.3392 26.6343 24.1817 26.5168 24.018C26.3992 23.8544 26.2901 23.685 26.1891 23.5106ZM33.4387 40.8206C33.2389 41.028 33.0204 41.2132 32.7822 41.3753C32.5444 41.5374 32.2924 41.6738 32.0266 41.784C31.7604 41.8939 31.4857 41.9757 31.203 42.0291C30.9199 42.0825 30.6344 42.1063 30.3467 42.1006H23.5669C23.4862 42.1006 23.4056 42.0967 23.3253 42.0887C23.245 42.0806 23.1655 42.0691 23.0863 42.0533C23.0072 42.0376 22.9288 42.018 22.8516 41.9945C22.7744 41.9711 22.6987 41.9438 22.6242 41.9127C22.5493 41.882 22.4767 41.8474 22.4056 41.8094C22.3342 41.7714 22.265 41.7299 22.1982 41.6853C22.131 41.6404 22.0664 41.5923 22.0038 41.5413C21.9416 41.4898 21.8817 41.4356 21.8248 41.3788C21.7676 41.3215 21.7138 41.262 21.6623 41.1994C21.6112 41.1371 21.5632 41.0722 21.5182 41.005C21.4737 40.9381 21.4322 40.869 21.3942 40.7975C21.3561 40.7265 21.3216 40.6535 21.2908 40.579C21.2597 40.5044 21.2328 40.4288 21.2094 40.3512C21.186 40.274 21.1664 40.196 21.1506 40.1168C21.1349 40.0377 21.123 39.9578 21.1149 39.8775C21.1072 39.7972 21.1034 39.7166 21.1034 39.6359C21.1034 39.5552 21.1072 39.4745 21.1149 39.3943C21.123 39.314 21.1349 39.2345 21.1506 39.1549C21.1664 39.0758 21.186 38.9978 21.2094 38.9206C21.2328 38.8434 21.2597 38.7673 21.2908 38.6928C21.3216 38.6183 21.3561 38.5453 21.3942 38.4742C21.4322 38.4028 21.4737 38.3336 21.5182 38.2668C21.5632 38.1996 21.6112 38.1346 21.6623 38.0724C21.7138 38.0102 21.7676 37.9502 21.8248 37.8934C21.8817 37.8362 21.9416 37.782 22.0038 37.7309C22.0664 37.6794 22.131 37.6314 22.1982 37.5868C22.265 37.5419 22.3342 37.5004 22.4056 37.4624C22.4767 37.4244 22.5493 37.3898 22.6242 37.359C22.6987 37.3279 22.7744 37.301 22.8516 37.2776C22.9288 37.2542 23.0072 37.2346 23.0863 37.2188C23.1655 37.2031 23.245 37.1912 23.3253 37.1831C23.4056 37.1754 23.4862 37.1712 23.5669 37.1712H29.7843C29.8907 37.1712 29.9933 37.1508 30.0916 37.1101C30.19 37.0694 30.2768 37.0114 30.3521 36.9361L32.7319 34.5552C32.7561 34.6024 32.7795 34.6497 32.8052 34.6961L35.1966 39.0597L33.4387 40.8206ZM40.938 47.8263C40.983 47.8002 41.0248 47.7702 41.064 47.736C41.1032 47.7018 41.1389 47.6642 41.1708 47.6231C41.2027 47.582 41.23 47.5382 41.2534 47.4917C41.2768 47.4452 41.2957 47.3972 41.3095 47.3469C41.3237 47.2969 41.3325 47.2458 41.3368 47.1944C41.341 47.1425 41.3398 47.0906 41.3341 47.0388C41.3279 46.9873 41.3172 46.9366 41.3014 46.887C41.2857 46.8375 41.2653 46.7902 41.2403 46.7445L36.9079 38.8395C36.901 38.8265 36.8941 38.8138 36.8864 38.8007L34.2135 33.9244C34.0422 33.6071 33.9101 33.274 33.8179 32.9252C33.8144 32.9102 33.8109 32.8953 33.8063 32.8807C33.4114 31.366 33.6796 29.6127 34.2765 28.5951C34.7671 27.7615 35.0829 27.3966 35.4854 27.1012C35.6548 27.0005 35.8196 26.8941 35.9798 26.782C36.0428 26.7447 36.1078 26.7067 36.1769 26.6659L44.4192 21.9056C44.6658 21.7565 44.9251 21.6344 45.1971 21.5391C45.469 21.4438 45.7479 21.3774 46.0337 21.3401C46.3195 21.3025 46.6057 21.2944 46.8931 21.3159C47.1804 21.3378 47.4627 21.3885 47.7393 21.4688L54.0739 23.1664C54.1519 23.1875 54.2287 23.2121 54.304 23.2405C54.3797 23.2689 54.4534 23.3008 54.5261 23.3365C54.5983 23.3723 54.6686 23.4114 54.7373 23.4541C54.8057 23.4967 54.8718 23.5424 54.9359 23.5916C54.9997 23.6408 55.0612 23.6926 55.1203 23.748C55.1791 23.8033 55.2352 23.8609 55.2882 23.9216C55.3416 23.9823 55.3915 24.0453 55.4384 24.111C55.4857 24.1767 55.5291 24.2443 55.5694 24.3142C55.6097 24.3841 55.6466 24.4559 55.68 24.5293C55.7131 24.6027 55.7426 24.6776 55.7688 24.754C55.7945 24.8305 55.8168 24.9081 55.8352 24.9865C55.8533 25.0652 55.8679 25.1443 55.8783 25.2246C55.889 25.3045 55.8955 25.3848 55.8982 25.4655C55.9009 25.5462 55.8994 25.6268 55.8944 25.7071C55.889 25.7878 55.8798 25.8677 55.8667 25.9472C55.8537 26.0271 55.8364 26.1059 55.8156 26.1838C55.7949 26.2618 55.7699 26.3383 55.7419 26.4139C55.7135 26.4892 55.6812 26.5634 55.6455 26.6356C55.6097 26.7082 55.5709 26.7785 55.5283 26.8469C55.4857 26.9156 55.4399 26.9817 55.3908 27.0459C55.3416 27.11 55.2894 27.1715 55.2344 27.2303C55.1791 27.289 55.1215 27.3451 55.0608 27.3985C55.0001 27.4515 54.9371 27.5018 54.8714 27.5487C54.8057 27.5956 54.7381 27.6394 54.6682 27.6797C54.5983 27.72 54.5268 27.7569 54.4534 27.7903C54.3797 27.8234 54.3048 27.853 54.2287 27.8791C54.1523 27.9048 54.0747 27.9271 53.9963 27.9455C53.9176 27.964 53.8384 27.9782 53.7585 27.9889C53.6782 27.9993 53.598 28.0058 53.5177 28.0085C53.437 28.0112 53.3563 28.0097 53.276 28.0047C53.1954 27.9993 53.1155 27.9901 53.0359 27.977C52.956 27.964 52.8773 27.9467 52.7997 27.9259L47.0045 26.3717C46.9015 26.344 46.7974 26.3371 46.6918 26.3509C46.5861 26.3648 46.4874 26.3986 46.3952 26.452L44.2793 27.6743C44.234 27.7004 44.1921 27.7308 44.1529 27.765C44.1138 27.7992 44.078 27.8368 44.0461 27.8779C44.0143 27.919 43.9866 27.9628 43.9632 28.0097C43.9397 28.0562 43.9213 28.1046 43.9075 28.1545C43.8933 28.2048 43.8844 28.2559 43.8802 28.3078C43.8764 28.3596 43.8771 28.4115 43.8833 28.463C43.8894 28.5148 43.9002 28.5655 43.9163 28.6151C43.9321 28.6647 43.9528 28.7123 43.9778 28.758L51.3688 42.1605C51.421 42.2558 51.4709 42.3522 51.5186 42.4498C51.5662 42.5477 51.6115 42.6464 51.6542 42.7463C51.6968 42.8462 51.7371 42.9472 51.7748 43.0494C51.8128 43.1512 51.8478 43.2542 51.8808 43.3575C51.9135 43.4612 51.9438 43.5657 51.9711 43.671C51.9988 43.7758 52.0237 43.8819 52.0464 43.9883C52.0687 44.0947 52.0886 44.2015 52.1059 44.3086C52.1228 44.4162 52.1374 44.5238 52.1493 44.6317C52.1612 44.74 52.1705 44.848 52.177 44.9567C52.1839 45.065 52.1878 45.1737 52.1889 45.2825C52.1901 45.3912 52.1889 45.4999 52.1847 45.6086C52.1805 45.7173 52.1739 45.8256 52.1643 45.934C52.1551 46.0423 52.1432 46.1502 52.1282 46.2578C52.1136 46.3657 52.0963 46.4729 52.0764 46.5797C52.0564 46.6865 52.0337 46.7929 52.0087 46.8986C51.9834 47.0046 51.9557 47.1095 51.9254 47.2139C51.895 47.3184 51.8624 47.4218 51.8267 47.5247C51.7913 47.6277 51.7537 47.7295 51.7129 47.8301C51.6726 47.9311 51.63 48.031 51.5846 48.1297C51.5393 48.2285 51.4917 48.3264 51.4414 48.4229C51.3914 48.5193 51.3388 48.6145 51.2842 48.7083C51.2293 48.8024 51.1725 48.8946 51.1129 48.9856C51.0538 49.0771 50.9923 49.1666 50.9285 49.2545C50.8647 49.3425 50.7991 49.4289 50.7311 49.5138C50.6631 49.5987 50.5932 49.6817 50.5209 49.7631C50.4491 49.8446 50.375 49.9241 50.2989 50.0021C50.2232 50.0797 50.1452 50.1557 50.0657 50.2295C49.9858 50.3036 49.9048 50.3755 49.8214 50.4454C49.738 50.5153 49.6535 50.5833 49.5667 50.649C49.4803 50.7147 49.3923 50.7784 49.3024 50.8399C49.2129 50.9014 49.1219 50.9605 49.0293 51.0178C48.9367 51.0746 48.843 51.1292 48.7477 51.1818L40.7068 55.5419C40.643 55.5764 40.5854 55.6187 40.5331 55.6686C40.4809 55.719 40.4363 55.775 40.3994 55.8369C40.3626 55.8991 40.3345 55.9652 40.3153 56.0347C40.2961 56.1046 40.2865 56.1757 40.2865 56.2479V64.4683C40.2869 64.5755 40.2823 64.6822 40.2727 64.7887C40.2627 64.8954 40.2477 65.0015 40.2273 65.1063C40.207 65.2116 40.1816 65.3153 40.1509 65.4179C40.1202 65.5205 40.0848 65.6215 40.0441 65.7206C40.0038 65.8197 39.9584 65.9165 39.9085 66.011C39.8586 66.1055 39.8036 66.1977 39.7449 66.2868C39.6857 66.3759 39.6223 66.462 39.5547 66.545C39.4871 66.6279 39.4153 66.7075 39.34 66.7835C39.2647 66.8596 39.1855 66.9314 39.1029 66.9994C39.0204 67.0678 38.9347 67.1316 38.846 67.1911C38.7572 67.251 38.6654 67.306 38.5713 67.3567C38.4768 67.4074 38.3804 67.4535 38.2816 67.4946C38.1829 67.5357 38.0823 67.5718 37.9797 67.6029C37.8775 67.634 37.7738 67.6601 37.6689 67.6813C37.5641 67.702 37.458 67.7178 37.3516 67.7285C37.2452 67.7389 37.1384 67.7443 37.0316 67.7443C36.9245 67.7443 36.8177 67.7389 36.7113 67.7285C36.6048 67.7178 36.4988 67.702 36.3939 67.6813C36.2891 67.6601 36.1854 67.634 36.0832 67.6029C35.9806 67.5718 35.88 67.5357 35.7812 67.4946C35.6825 67.4535 35.5861 67.4074 35.4916 67.3567C35.3975 67.306 35.3057 67.251 35.2169 67.1911C35.1282 67.1316 35.0425 67.0678 34.9599 66.9994C34.8773 66.9314 34.7982 66.8596 34.7229 66.7835C34.6476 66.7075 34.5758 66.6279 34.5082 66.545C34.4406 66.462 34.3776 66.3759 34.3184 66.2868C34.2592 66.1977 34.2047 66.1055 34.1544 66.011C34.1044 65.9165 34.0591 65.8197 34.0188 65.7206C33.978 65.6215 33.9427 65.5205 33.912 65.4179C33.8816 65.3153 33.8559 65.2116 33.8355 65.1063C33.8152 65.0015 33.8002 64.8954 33.7902 64.7887C33.7806 64.6822 33.776 64.5755 33.7764 64.4683V54.4893C33.7737 54.2976 33.7841 54.1067 33.8071 53.9165C33.8302 53.7264 33.8659 53.5385 33.9139 53.353C33.9623 53.1674 34.023 52.9861 34.0956 52.809C34.1682 52.6316 34.2523 52.4602 34.348 52.2943C34.444 52.1283 34.5504 51.9693 34.6672 51.8179C34.7844 51.6662 34.9111 51.5229 35.0475 51.3885C35.1839 51.254 35.3287 51.1292 35.4816 51.0139C35.6349 50.8991 35.7951 50.7946 35.9622 50.7008L40.938 47.8263ZM23.7229 54.018C23.5976 54.018 23.4724 54.021 23.3472 54.0272C23.2219 54.0333 23.0971 54.0425 22.9726 54.0548C22.8478 54.0671 22.7237 54.0825 22.5996 54.1009C22.4755 54.1194 22.3522 54.1409 22.2293 54.1651C22.1068 54.1897 21.9846 54.2173 21.8628 54.2477C21.7414 54.278 21.6208 54.3114 21.501 54.3479C21.3811 54.3844 21.262 54.4236 21.1441 54.4659C21.0262 54.5081 20.9094 54.5531 20.7937 54.6011C20.6777 54.6491 20.5633 54.6998 20.4503 54.7532C20.337 54.807 20.2252 54.8631 20.1146 54.9222C20.0039 54.9814 19.8952 55.0432 19.7877 55.1074C19.6801 55.1719 19.5745 55.2392 19.4704 55.3087C19.3663 55.3782 19.2637 55.4504 19.163 55.525C19.0624 55.5995 18.9637 55.6767 18.8669 55.7562C18.7701 55.8357 18.6752 55.9176 18.5826 56.0017C18.4896 56.0858 18.399 56.1722 18.3102 56.261C18.2219 56.3493 18.1355 56.4404 18.0513 56.533C17.9672 56.6259 17.8854 56.7208 17.8059 56.8176C17.7263 56.9144 17.6495 57.0131 17.575 57.1138C17.5001 57.2144 17.4282 57.317 17.3583 57.4211C17.2888 57.5256 17.222 57.6312 17.1574 57.7388C17.0933 57.8464 17.0314 57.9551 16.9723 58.0657C16.9131 58.1763 16.857 58.2881 16.8032 58.4014C16.7498 58.5148 16.6991 58.6292 16.6511 58.7453C16.6031 58.8609 16.5581 58.9777 16.5159 59.0956C16.4736 59.2135 16.4345 59.3326 16.398 59.4525C16.3618 59.5723 16.3284 59.6933 16.2981 59.8147C16.2673 59.9365 16.2401 60.0587 16.2155 60.1816C16.1913 60.3045 16.1698 60.4278 16.1513 60.5519C16.1329 60.6756 16.1175 60.8001 16.1052 60.9249C16.0929 61.0494 16.0837 61.1746 16.0776 61.2994C16.0714 61.4247 16.0684 61.5499 16.0684 61.6755C16.0684 61.8008 16.0714 61.926 16.0776 62.0512C16.0837 62.1761 16.0929 62.3013 16.1052 62.4258C16.1175 62.5506 16.1329 62.6751 16.1513 62.7988C16.1698 62.9229 16.1913 63.0462 16.2155 63.1691C16.2401 63.292 16.2673 63.4142 16.2981 63.5359C16.3284 63.6573 16.3618 63.7783 16.398 63.8982C16.4345 64.0181 16.4736 64.1371 16.5159 64.2551C16.5581 64.373 16.6031 64.4898 16.6511 64.6058C16.6991 64.7214 16.7498 64.8359 16.8036 64.9492C16.857 65.0625 16.9135 65.1743 16.9723 65.285C17.0314 65.3956 17.0933 65.5043 17.1574 65.6119C17.222 65.7194 17.2888 65.8255 17.3583 65.9296C17.4282 66.0337 17.5001 66.1362 17.575 66.2369C17.6495 66.3375 17.7263 66.4363 17.8059 66.5331C17.8854 66.6299 17.9672 66.7248 18.0513 66.8177C18.1355 66.9107 18.2219 67.0013 18.3102 67.0897C18.399 67.1784 18.4896 67.2649 18.5826 67.349C18.6752 67.4331 18.7701 67.5149 18.8669 67.5945C18.9637 67.674 19.0624 67.7512 19.163 67.8257C19.2637 67.9002 19.3663 67.9725 19.4704 68.042C19.5745 68.1119 19.6801 68.1787 19.7877 68.2433C19.8952 68.3074 20.0039 68.3693 20.1146 68.4284C20.2252 68.4876 20.337 68.5437 20.4503 68.5975C20.5633 68.6509 20.6777 68.7016 20.7937 68.7496C20.9094 68.7976 21.0262 68.8429 21.1441 68.8848C21.262 68.9271 21.3811 68.9666 21.501 69.0027C21.6208 69.0392 21.7414 69.0727 21.8628 69.103C21.9846 69.1337 22.1068 69.161 22.2293 69.1856C22.3522 69.2098 22.4755 69.2313 22.5996 69.2497C22.7237 69.2682 22.8478 69.2836 22.9726 69.2958C23.0971 69.3081 23.2219 69.3174 23.3472 69.3235C23.4724 69.3297 23.5976 69.3327 23.7229 69.3327C23.8481 69.3327 23.9733 69.3297 24.0982 69.3235C24.2234 69.3174 24.3483 69.3081 24.4731 69.2958C24.5976 69.2836 24.722 69.2682 24.8457 69.2497C24.9698 69.2313 25.0931 69.2098 25.216 69.1856C25.339 69.161 25.4611 69.1337 25.5825 69.103C25.7039 69.0727 25.8249 69.0392 25.9448 69.0027C26.0646 68.9666 26.1833 68.9271 26.3013 68.8848C26.4192 68.8429 26.536 68.7976 26.652 68.7496C26.7676 68.7016 26.8821 68.6509 26.9954 68.5975C27.1087 68.5437 27.2205 68.4876 27.3308 68.4284C27.4414 68.3693 27.5505 68.3074 27.6577 68.2433C27.7652 68.1787 27.8709 68.1119 27.9754 68.042C28.0795 67.9725 28.1817 67.9002 28.2823 67.8257C28.3829 67.7512 28.4817 67.674 28.5785 67.5945C28.6753 67.5149 28.7702 67.4331 28.8631 67.349C28.9557 67.2649 29.0464 67.1784 29.1351 67.0897C29.2238 67.0013 29.3099 66.9107 29.394 66.8177C29.4782 66.7248 29.56 66.6299 29.6395 66.5331C29.719 66.4363 29.7962 66.3375 29.8708 66.2369C29.9453 66.1362 30.0175 66.0337 30.087 65.9296C30.1566 65.8255 30.2238 65.7194 30.2879 65.6119C30.3525 65.5047 30.4139 65.3956 30.4731 65.285C30.5323 65.1743 30.5883 65.0625 30.6421 64.9492C30.6955 64.8359 30.7462 64.7214 30.7942 64.6058C30.8423 64.4898 30.8872 64.373 30.9295 64.2551C30.9717 64.1371 31.0109 64.0181 31.0474 63.8982C31.0839 63.7783 31.1173 63.6577 31.1477 63.5359C31.178 63.4146 31.2053 63.292 31.2299 63.1695C31.2544 63.0465 31.2756 62.9229 31.294 62.7992C31.3125 62.6751 31.3278 62.5506 31.3401 62.4262C31.3524 62.3013 31.3616 62.1765 31.3678 62.0512C31.3739 61.926 31.377 61.8008 31.377 61.6755C31.377 61.5503 31.3735 61.4251 31.3674 61.2998C31.3612 61.1746 31.352 61.0498 31.3393 60.9253C31.3271 60.8004 31.3117 60.676 31.2932 60.5523C31.2748 60.4282 31.2533 60.3049 31.2287 60.182C31.2041 60.059 31.1768 59.9369 31.1461 59.8155C31.1158 59.6941 31.0823 59.5735 31.0459 59.4536C31.0094 59.3334 30.9702 59.2147 30.9279 59.0968C30.8857 58.9788 30.8403 58.862 30.7923 58.746C30.7447 58.6304 30.6936 58.5159 30.6402 58.4026C30.5864 58.2897 30.5303 58.1779 30.4712 58.0672C30.412 57.9566 30.3502 57.8479 30.286 57.7403C30.2215 57.6328 30.1546 57.5271 30.0847 57.423C30.0152 57.3189 29.9434 57.2164 29.8684 57.1157C29.7939 57.0151 29.7171 56.9163 29.6376 56.8195C29.5581 56.7227 29.4762 56.6278 29.3921 56.5353C29.308 56.4423 29.2215 56.3516 29.1332 56.2629C29.0445 56.1745 28.9538 56.0881 28.8612 56.004C28.7682 55.9199 28.6734 55.838 28.5766 55.7585C28.4798 55.679 28.381 55.6018 28.2808 55.5273C28.1801 55.4524 28.0776 55.3805 27.9734 55.3106C27.8693 55.2411 27.7637 55.1742 27.6561 55.1097C27.549 55.0452 27.4399 54.9833 27.3296 54.9245C27.219 54.8654 27.1072 54.8089 26.9943 54.7551C26.8809 54.7017 26.7665 54.651 26.6508 54.603C26.5352 54.555 26.4184 54.5097 26.3005 54.4674C26.1826 54.4251 26.0639 54.386 25.944 54.3495C25.8241 54.313 25.7035 54.2796 25.5821 54.2488C25.4604 54.2185 25.3382 54.1908 25.2157 54.1662C25.0927 54.142 24.9694 54.1205 24.8453 54.1021C24.7216 54.0833 24.5976 54.0679 24.4727 54.0556C24.3483 54.0433 24.2234 54.0341 24.0982 54.0276C23.9733 54.0214 23.8481 54.0183 23.7229 54.018ZM23.7229 67.7262C23.5246 67.7262 23.3272 67.7166 23.1297 67.697C22.9327 67.6778 22.7371 67.6486 22.5428 67.6098C22.3484 67.5714 22.1563 67.5234 21.9669 67.4658C21.7775 67.4081 21.5912 67.3413 21.408 67.2656C21.2251 67.19 21.0461 67.1051 20.8713 67.0117C20.6966 66.9184 20.5272 66.8166 20.3624 66.7067C20.1976 66.5964 20.0385 66.4785 19.8856 66.3529C19.7324 66.2273 19.5856 66.094 19.4458 65.9542C19.3056 65.8139 19.1726 65.6672 19.047 65.5139C18.9214 65.361 18.8035 65.202 18.6936 65.0372C18.5834 64.8724 18.4816 64.7026 18.3882 64.5278C18.2949 64.353 18.2104 64.174 18.1343 63.9912C18.0586 63.8079 17.9922 63.6216 17.9345 63.4318C17.8769 63.2425 17.8289 63.0504 17.7901 62.856C17.7517 62.6616 17.7225 62.4657 17.7033 62.2687C17.6837 62.0712 17.6741 61.8737 17.6741 61.6755C17.6741 61.4773 17.6837 61.2795 17.7029 61.0824C17.7225 60.8853 17.7517 60.6894 17.7901 60.495C17.8289 60.3007 17.8769 60.1086 17.9345 59.9188C17.9918 59.7294 18.0586 59.5431 18.1343 59.3599C18.21 59.1767 18.2949 58.9976 18.3882 58.8232C18.4816 58.6485 18.583 58.4787 18.6932 58.3139C18.8031 58.1491 18.921 57.99 19.0466 57.8368C19.1723 57.6835 19.3052 57.5367 19.4454 57.3969C19.5856 57.2567 19.732 57.1238 19.8852 56.9978C20.0381 56.8722 20.1972 56.7542 20.362 56.6444C20.5268 56.5341 20.6962 56.4323 20.871 56.339C21.0457 56.2456 21.2248 56.1607 21.4076 56.085C21.5905 56.009 21.7768 55.9425 21.9665 55.8849C22.1559 55.8273 22.348 55.7793 22.5424 55.7405C22.7368 55.702 22.9323 55.6729 23.1294 55.6536C23.3264 55.6341 23.5243 55.6245 23.7225 55.6245C23.9203 55.6245 24.1182 55.6341 24.3152 55.6533C24.5123 55.6729 24.7082 55.702 24.9022 55.7405C25.0966 55.7793 25.2886 55.8273 25.478 55.8849C25.6678 55.9421 25.8541 56.009 26.037 56.0847C26.2198 56.1607 26.3988 56.2452 26.5736 56.3386C26.7484 56.4319 26.9182 56.5337 27.0826 56.644C27.2474 56.7542 27.4064 56.8718 27.5593 56.9978C27.7126 57.1234 27.8594 57.2563 27.9992 57.3965C28.1394 57.5367 28.2723 57.6831 28.3979 57.8364C28.5235 57.9896 28.6415 58.1487 28.7517 58.3135C28.8616 58.4783 28.9634 58.6481 29.0567 58.8225C29.1501 58.9973 29.2346 59.1763 29.3107 59.3595C29.3863 59.5424 29.4532 59.7291 29.5104 59.9184C29.568 60.1082 29.6161 60.3003 29.6549 60.4947C29.6933 60.689 29.7225 60.8846 29.7421 61.082C29.7613 61.2791 29.7709 61.4769 29.7713 61.6751C29.7709 61.873 29.7609 62.0708 29.7417 62.2679C29.7221 62.465 29.6929 62.6609 29.6541 62.8552C29.6153 63.0496 29.5673 63.2413 29.5097 63.4311C29.452 63.6205 29.3852 63.8068 29.3095 63.99C29.2335 64.1729 29.1489 64.3519 29.0556 64.5263C28.9622 64.7011 28.8604 64.8709 28.7502 65.0357C28.6403 65.2005 28.5224 65.3591 28.3968 65.5124C28.2712 65.6657 28.1382 65.812 27.998 65.9522C27.8582 66.0924 27.7115 66.2254 27.5586 66.351C27.4053 66.4766 27.2466 66.5945 27.0818 66.7048C26.9174 66.8146 26.7476 66.9164 26.5729 67.0102C26.3984 67.1035 26.2194 67.188 26.0366 67.2641C25.8537 67.3402 25.6674 67.4066 25.478 67.4642C25.2886 67.5219 25.0966 67.5703 24.9026 67.6091C24.7082 67.6479 24.5127 67.6771 24.3156 67.6966C24.1185 67.7162 23.9207 67.7258 23.7229 67.7262Z" fill="#3026C1"/>
</g>
</g>
</svg>
