<svg width="92" height="92" viewBox="0 0 92 92" fill="none" xmlns="http://www.w3.org/2000/svg">
<circle cx="45.5976" cy="45.596" r="45.596" fill="#E4E6F6"/>
<path d="M71.2579 67.7057L67.8886 57.8777C68.057 57.5827 68.2168 57.2833 68.3686 56.9794C68.52 56.6756 68.6629 56.3678 68.7973 56.0562C68.9318 55.7443 69.057 55.4291 69.1738 55.1103C69.2906 54.7914 69.3981 54.4696 69.4965 54.1449C69.5952 53.8201 69.6847 53.4928 69.7646 53.1629C69.8449 52.8334 69.9156 52.5017 69.9775 52.1678C70.039 51.8339 70.091 51.4989 70.1337 51.1624C70.1768 50.8256 70.21 50.488 70.2339 50.1497C70.2575 49.811 70.2718 49.4719 70.2766 49.1329C70.2814 48.7935 70.2766 48.4544 70.2626 48.1154C70.2483 47.7763 70.2247 47.438 70.1912 47.1001C70.158 46.7625 70.1153 46.426 70.0633 46.0906C70.011 45.7552 69.9495 45.4217 69.8788 45.0896C69.8081 44.7579 69.7278 44.428 69.6386 44.1007C69.5491 43.7734 69.4508 43.4487 69.3432 43.1265C69.2357 42.8047 69.1193 42.4862 68.9937 42.1706C68.8684 41.8551 68.734 41.5435 68.5911 41.2357C68.4481 40.9275 68.2968 40.624 68.1369 40.3242C67.9767 40.0248 67.8083 39.7301 67.6319 39.4399C67.4554 39.15 67.2709 38.8649 67.0783 38.5849C66.8856 38.3053 66.6856 38.0312 66.4775 37.7626C66.2697 37.4937 66.0543 37.2313 65.8318 36.9745C65.6093 36.718 65.3794 36.4677 65.1426 36.2241C64.9061 35.9801 64.6626 35.743 64.4125 35.513C64.1628 35.2829 63.9064 35.0598 63.6438 34.8437C63.3815 34.6279 63.113 34.4195 62.8386 34.2184C62.5645 34.0173 62.285 33.8243 61.9999 33.639C61.7148 33.4537 61.4249 33.2765 61.1298 33.1073C60.8348 32.9382 60.5353 32.7774 60.2311 32.6248C59.9272 32.4725 59.6192 32.3287 59.3069 32.1933C58.9949 32.0583 58.6792 31.9317 58.3598 31.8142C58.0409 31.6965 57.7186 31.5878 57.3933 31.488C57.5731 31.8821 57.7403 32.281 57.8954 32.685C58.0504 33.0893 58.1926 33.4977 58.3226 33.9105C58.4523 34.3234 58.5691 34.7398 58.6733 35.16C58.7772 35.5801 58.8682 36.0028 58.9463 36.4285C59.024 36.8541 59.0888 37.2816 59.1404 37.7113C59.1919 38.141 59.2299 38.5717 59.2549 39.0036C59.2796 39.4355 59.2914 39.8678 59.2896 40.3004C59.2877 40.7334 59.2722 41.1652 59.2439 41.5971C59.2151 42.029 59.1735 42.4594 59.1183 42.8884C59.063 43.3177 58.9949 43.7448 58.9135 44.1697C58.8317 44.5946 58.7374 45.0166 58.6295 45.4356C58.5219 45.855 58.4015 46.2704 58.2685 46.6821C58.1352 47.0938 57.9893 47.5011 57.8309 47.904C57.6721 48.3069 57.5016 48.7043 57.3185 49.0966C57.1355 49.4888 56.9406 49.8752 56.7336 50.2557C56.527 50.6358 56.3085 51.0094 56.0783 51.3763C55.8485 51.7433 55.6076 52.1029 55.3552 52.4548C55.1029 52.807 54.8403 53.1508 54.567 53.4869C54.2933 53.8227 54.0097 54.15 53.7161 54.4685C53.4225 54.787 53.1194 55.0963 52.8066 55.3961C52.4939 55.6963 52.172 55.9861 51.8412 56.2661C51.5108 56.5465 51.1715 56.8161 50.8242 57.0752C50.4768 57.3346 50.1218 57.583 49.7593 57.8205C49.3965 58.0579 49.027 58.2843 48.6502 58.4989C48.2734 58.7136 47.8907 58.9165 47.5013 59.108C47.112 59.2992 46.7175 59.4783 46.3171 59.6452C45.9167 59.8122 45.5119 59.9667 45.1019 60.109C44.6919 60.251 44.2783 60.3802 43.8606 60.4969C43.4425 60.6136 43.0215 60.7174 42.5975 60.808C42.1732 60.899 41.7466 60.9768 41.3175 61.0414C40.8884 61.106 40.4578 61.1574 40.0257 61.1955C39.5933 61.2337 39.1605 61.2583 38.7266 61.27C38.8978 61.4524 39.0728 61.6314 39.2511 61.8065C39.4297 61.9819 39.6121 62.1536 39.7977 62.3213C39.9834 62.489 40.1723 62.653 40.3646 62.8133C40.5572 62.9733 40.7528 63.1293 40.9517 63.2812C41.1503 63.4335 41.3525 63.5813 41.5573 63.7248C41.7625 63.8687 41.9702 64.0081 42.1809 64.1431C42.3916 64.2785 42.6053 64.4092 42.8215 64.5357C43.0373 64.662 43.2561 64.7842 43.4775 64.9016C43.6985 65.019 43.9221 65.1316 44.1479 65.2399C44.3737 65.3481 44.6017 65.4516 44.8319 65.5507C45.0621 65.6494 45.2942 65.7437 45.5281 65.8329C45.762 65.9224 45.9977 66.0068 46.2353 66.0864C46.4729 66.166 46.712 66.2409 46.9525 66.3106C47.193 66.3803 47.435 66.4453 47.6785 66.5051C47.9216 66.5649 48.1662 66.6199 48.4115 66.6698C48.6572 66.7194 48.9036 66.7641 49.1512 66.8041C49.3987 66.8438 49.6466 66.8783 49.8956 66.908C50.1442 66.9373 50.3936 66.9619 50.6433 66.981C50.8934 67.0005 51.1436 67.0144 51.394 67.0236C51.6441 67.0324 51.8946 67.036 52.1455 67.0349C52.3959 67.0335 52.6464 67.0272 52.8969 67.0155C53.147 67.0041 53.3971 66.9872 53.6465 66.9652C53.8962 66.9436 54.1452 66.9164 54.3939 66.8845C54.6425 66.8522 54.89 66.8152 55.1372 66.773C55.384 66.7304 55.63 66.6831 55.875 66.6309C56.1199 66.5785 56.3638 66.5209 56.6065 66.4585C56.8493 66.3961 57.0905 66.3286 57.3303 66.2563C57.5701 66.184 57.8084 66.107 58.0449 66.0248C58.2818 65.9426 58.5164 65.8556 58.7496 65.7639C58.9827 65.6721 59.2137 65.5756 59.4428 65.4744C59.6719 65.3731 59.8988 65.267 60.1235 65.1566C60.3482 65.0462 60.5707 64.9309 60.7906 64.8109L70.3945 68.5339C70.4531 68.5559 70.5138 68.5698 70.5765 68.5746C70.6391 68.5797 70.701 68.5761 70.7625 68.5636C70.824 68.5508 70.8826 68.5302 70.9378 68.5009C70.9934 68.4719 71.0439 68.4355 71.0892 68.3922C71.1345 68.3489 71.1728 68.3001 71.2041 68.2458C71.2354 68.1915 71.2583 68.1339 71.2734 68.0734C71.2881 68.0125 71.2944 67.9508 71.2918 67.8884C71.2892 67.8257 71.2778 67.7648 71.2579 67.7057Z" fill="#3026C1"/>
<path d="M55.914 40.451C55.9126 40.1045 55.9017 39.7584 55.8807 39.4122C55.8598 39.0665 55.8287 38.7214 55.7882 38.3775C55.7477 38.0335 55.6974 37.6907 55.6374 37.3497C55.5774 37.0086 55.5076 36.6695 55.4284 36.3325C55.3488 35.9951 55.2599 35.6607 55.1619 35.3288C55.0635 34.9969 54.9558 34.6679 54.8386 34.3423C54.7218 34.0166 54.5956 33.6946 54.46 33.3766C54.3248 33.0583 54.1805 32.7439 54.0275 32.434C53.8742 32.124 53.7122 31.8188 53.5419 31.5184C53.3712 31.2179 53.1922 30.9226 53.0049 30.6324C52.8176 30.3425 52.6223 30.0582 52.4188 29.7793C52.2155 29.5004 52.0044 29.2281 51.7852 28.9617C51.5661 28.6952 51.3397 28.4353 51.1061 28.182C50.8725 27.9287 50.6317 27.6824 50.384 27.4433C50.1363 27.2039 49.8821 26.9722 49.621 26.7474C49.36 26.523 49.0931 26.3063 48.8197 26.0975C48.5467 25.8885 48.2676 25.6878 47.983 25.4952C47.6984 25.3022 47.4084 25.118 47.1133 24.9422C46.8183 24.7664 46.5185 24.5993 46.214 24.4411C45.9092 24.2824 45.6004 24.1333 45.2872 23.9926C44.9741 23.8522 44.6573 23.721 44.3369 23.5993C44.0162 23.4772 43.6926 23.3647 43.3657 23.2616C43.0388 23.1585 42.709 23.0649 42.3767 22.9809C42.0444 22.8968 41.7102 22.8226 41.3736 22.7583C41.0369 22.6936 40.6992 22.6388 40.3593 22.5942C40.0198 22.5492 39.6791 22.5145 39.3378 22.4893C38.9961 22.4644 38.654 22.4491 38.3115 22.4439C37.9691 22.4388 37.627 22.4439 37.2849 22.4586C36.9425 22.4732 36.6012 22.498 36.2605 22.5328C35.9195 22.5675 35.58 22.6121 35.2419 22.6662C34.9038 22.7206 34.5671 22.785 34.2327 22.8588C33.8982 22.933 33.5659 23.0167 33.2361 23.1099C32.9063 23.2031 32.5794 23.3062 32.2554 23.4184C31.9314 23.5306 31.611 23.6523 31.2939 23.7832C30.9768 23.9144 30.6636 24.0544 30.3545 24.2035C30.0456 24.353 29.7408 24.5109 29.4407 24.6779C29.1406 24.8446 28.8455 25.0204 28.5555 25.2043C28.2651 25.3885 27.9805 25.5807 27.7014 25.7814C27.4222 25.982 27.1488 26.1908 26.8816 26.4071C26.614 26.6239 26.353 26.8479 26.0984 27.0797C25.8438 27.3114 25.5961 27.5504 25.3549 27.7964C25.1141 28.0428 24.8801 28.2957 24.6534 28.5556C24.4267 28.8151 24.2079 29.0815 23.9964 29.3538C23.7848 29.6265 23.5809 29.905 23.3853 30.1894C23.1897 30.4738 23.0023 30.7632 22.823 31.0586C22.6436 31.3539 22.473 31.6543 22.311 31.9595C22.1486 32.2647 21.9953 32.5743 21.8506 32.8883C21.706 33.2026 21.5708 33.5206 21.4442 33.8426C21.3176 34.1646 21.2005 34.4899 21.0924 34.8189C20.9842 35.1479 20.8859 35.4794 20.7966 35.8142C20.7076 36.1486 20.6281 36.4856 20.5579 36.8248C20.4881 37.164 20.4277 37.5046 20.3771 37.8475C20.3265 38.1903 20.2856 38.5343 20.2545 38.8793C20.2234 39.2243 20.2021 39.5701 20.1905 39.9163C20.1793 40.2628 20.1779 40.6089 20.1858 40.9554C20.1941 41.3019 20.2122 41.6477 20.2401 41.9931C20.2683 42.3385 20.3059 42.6828 20.3532 43.026C20.4006 43.3692 20.4581 43.7106 20.525 44.0505C20.5919 44.3904 20.6682 44.7278 20.7543 45.0633C20.8403 45.3988 20.9358 45.7315 21.041 46.0611C21.1459 46.3908 21.2601 46.7176 21.3838 47.0407C21.5071 47.3638 21.6398 47.6833 21.7816 47.9987C21.9233 48.3141 22.0737 48.6252 22.2332 48.9318C22.3923 49.2385 22.5605 49.5404 22.7369 49.8376L21.5961 53.2211L19.7638 58.6631C19.7439 58.7219 19.7331 58.7826 19.7306 58.8451C19.7277 58.9072 19.7338 58.9686 19.7486 59.0293C19.7631 59.0896 19.7859 59.147 19.8166 59.2011C19.8474 59.2552 19.885 59.3038 19.9294 59.3469C19.9736 59.3901 20.0231 59.4263 20.0777 59.4551C20.1323 59.4844 20.1898 59.5052 20.2502 59.5176C20.3106 59.5301 20.3713 59.5337 20.4328 59.5286C20.4943 59.5238 20.5536 59.51 20.6114 59.488L25.8568 57.4255L29.1048 56.1458C30.221 56.7983 31.3933 57.322 32.6213 57.7175C33.8497 58.113 35.1056 58.371 36.3889 58.4913C36.9342 58.5377 37.4885 58.5655 38.0472 58.5655C38.3401 58.5655 38.6326 58.5582 38.9252 58.5439C39.2177 58.5293 39.5095 58.5074 39.801 58.4781C40.0921 58.4493 40.3828 58.4131 40.6724 58.3696C40.9617 58.3261 41.2503 58.2753 41.5374 58.2172C41.8245 58.1594 42.1102 58.0943 42.394 58.0223C42.6783 57.9503 42.9603 57.8714 43.2402 57.7851C43.5204 57.6992 43.7985 57.606 44.074 57.5062C44.3496 57.4061 44.6226 57.2994 44.8931 57.1861C45.1636 57.0724 45.4311 56.9521 45.6955 56.8257C45.9602 56.6988 46.2216 56.5654 46.4798 56.4254C46.738 56.2858 46.9925 56.1396 47.2435 55.9872C47.4944 55.8348 47.7418 55.6762 47.9848 55.5113C48.2281 55.3465 48.4675 55.1758 48.7026 54.9992C48.9376 54.8223 49.1679 54.6399 49.3943 54.4517C49.6203 54.2638 49.842 54.0701 50.0586 53.8709C50.2752 53.6717 50.4871 53.4674 50.6939 53.2576C50.9008 53.0482 51.1025 52.8333 51.2989 52.6136C51.4952 52.3939 51.6862 52.1695 51.8717 51.9403C52.0572 51.7111 52.2369 51.4772 52.4108 51.2393C52.5851 51.001 52.7532 50.7586 52.9156 50.5123C53.078 50.2656 53.2342 50.0152 53.3846 49.7608C53.5347 49.5064 53.6786 49.2487 53.8164 48.9874C53.9538 48.7257 54.085 48.4611 54.2098 48.1931C54.3345 47.9252 54.4528 47.654 54.5645 47.3803C54.6763 47.1065 54.7811 46.8302 54.8791 46.5509C54.9775 46.2717 55.069 45.9906 55.1532 45.707C55.2378 45.4233 55.3156 45.1375 55.3861 44.8502C55.4566 44.5626 55.5202 44.2735 55.577 43.9829C55.6334 43.6923 55.683 43.4003 55.7256 43.1075C55.7679 42.8144 55.8034 42.5201 55.8312 42.2255C55.8594 41.9306 55.8804 41.6352 55.8941 41.3392C55.9079 41.0431 55.9147 40.747 55.914 40.451ZM40.292 44.6229C40.292 44.7172 40.283 44.8104 40.2649 44.9029C40.2465 44.9957 40.2197 45.0852 40.1839 45.1726C40.1485 45.2596 40.1047 45.3426 40.0527 45.4211C40.0009 45.4994 39.942 45.5721 39.8762 45.6386C39.81 45.7055 39.7384 45.7651 39.661 45.8174C39.5833 45.87 39.5016 45.9142 39.4155 45.9504C39.3291 45.9862 39.2405 46.0136 39.149 46.0319C39.0575 46.0505 38.9653 46.0597 38.872 46.0597H29.824C29.7318 46.0582 29.6407 46.0476 29.5503 46.0282C29.4599 46.0085 29.3723 45.9804 29.2877 45.9438C29.2028 45.9069 29.1221 45.8623 29.0462 45.8097C28.9699 45.7567 28.8994 45.6971 28.8346 45.6306C28.7699 45.5641 28.7121 45.4917 28.6614 45.4138C28.6104 45.336 28.5678 45.2537 28.5327 45.1671C28.4976 45.0809 28.4712 44.9917 28.4535 44.9003C28.4358 44.8086 28.4268 44.7161 28.4268 44.6229V44.4836C28.4268 44.3893 28.4358 44.2961 28.4542 44.2036C28.4723 44.1112 28.4994 44.0216 28.5349 43.9346C28.5707 43.8473 28.6144 43.7647 28.6661 43.6865C28.7182 43.6082 28.7771 43.5359 28.843 43.4693C28.9091 43.4028 28.9807 43.3432 29.0585 43.291C29.1359 43.2391 29.2176 43.1948 29.304 43.159C29.3901 43.1232 29.4787 43.0962 29.5701 43.0782C29.6616 43.06 29.7538 43.0512 29.8471 43.0512H38.872C38.965 43.0512 39.0572 43.06 39.1486 43.0782C39.2401 43.0962 39.3291 43.1232 39.4151 43.159C39.5012 43.1948 39.5829 43.2391 39.6607 43.291C39.7381 43.3432 39.81 43.4028 39.8758 43.4693C39.9416 43.5359 40.0006 43.6082 40.0527 43.6865C40.1044 43.7647 40.1481 43.8473 40.1839 43.9346C40.2197 44.0216 40.2465 44.1112 40.2649 44.2036C40.283 44.2961 40.292 44.3893 40.292 44.4836V44.6229ZM47.1274 38.3047C47.1274 38.399 47.118 38.4926 47.0999 38.5851C47.0819 38.6776 47.0547 38.7675 47.0193 38.8548C46.9835 38.9418 46.9397 39.0248 46.888 39.103C46.836 39.1816 46.7774 39.2543 46.7112 39.3208C46.6454 39.3877 46.5734 39.4473 46.4961 39.4996C46.4187 39.5518 46.3366 39.5964 46.2505 39.6323C46.1645 39.6684 46.0755 39.6959 45.984 39.7141C45.8925 39.7324 45.8003 39.7419 45.707 39.7419H29.5264C29.4331 39.7419 29.3405 39.7324 29.249 39.7141C29.1579 39.6959 29.069 39.6684 28.9829 39.6323C28.8965 39.5964 28.8147 39.5518 28.7374 39.4996C28.6596 39.4473 28.588 39.3877 28.5222 39.3208C28.456 39.2543 28.3971 39.1816 28.3454 39.103C28.2937 39.0248 28.2499 38.9418 28.2141 38.8548C28.1787 38.7675 28.1516 38.6776 28.1335 38.5851C28.115 38.4926 28.106 38.399 28.106 38.3047V38.1706C28.1067 38.0763 28.1161 37.9835 28.1349 37.8913C28.1537 37.7992 28.1809 37.7101 28.2167 37.6234C28.2528 37.5368 28.2966 37.4546 28.3486 37.3767C28.4004 37.2985 28.4593 37.2265 28.5251 37.1603C28.5913 37.0942 28.6629 37.035 28.7403 36.9831C28.8173 36.9308 28.899 36.8869 28.9851 36.8511C29.0708 36.8153 29.1594 36.7882 29.2505 36.77C29.3412 36.7517 29.4335 36.7429 29.5264 36.7429H45.707C45.8003 36.7429 45.8925 36.7521 45.984 36.7703C46.0755 36.7886 46.1645 36.816 46.2505 36.8522C46.3366 36.8884 46.4187 36.9326 46.4961 36.9849C46.5734 37.0372 46.6454 37.0967 46.7112 37.1636C46.7774 37.2305 46.836 37.3029 46.888 37.3815C46.9397 37.4597 46.9835 37.5427 47.0193 37.6296C47.0547 37.717 47.0819 37.8069 47.0999 37.8994C47.118 37.9919 47.1274 38.0854 47.1274 38.1797V38.3047Z" fill="#3026C1"/>
</svg>
