<svg width="92" height="92" viewBox="0 0 92 92" fill="none" xmlns="http://www.w3.org/2000/svg">
<circle cx="45.596" cy="45.596" r="45.596" fill="#E4E6F6"/>
<mask id="mask0_1_7606" style="mask-type:luminance" maskUnits="userSpaceOnUse" x="19" y="60" width="17" height="12">
<path d="M19.136 60.6997H35.8555V71.8844H19.136V60.6997Z" fill="white"/>
</mask>
<g mask="url(#mask0_1_7606)">
<path d="M27.4642 63.5564C25.0076 63.5564 22.7865 62.4874 21.2735 60.7803C19.9412 62.2516 19.136 64.195 19.136 66.3324V70.4966C19.136 71.2601 19.7608 71.8846 20.524 71.8846H34.4045C35.168 71.8846 35.7925 71.2601 35.7925 70.4966V66.3324C35.7925 64.195 34.9876 62.2516 33.655 60.7803C32.142 62.4874 29.9212 63.5564 27.4642 63.5564Z" fill="#3026C1"/>
</g>
<path d="M33.0168 55.2269C33.0168 55.3177 33.0148 55.4086 33.0102 55.4994C33.0056 55.5899 32.999 55.6808 32.9902 55.771C32.9813 55.8615 32.9702 55.9517 32.9567 56.0416C32.9436 56.1314 32.9279 56.221 32.9102 56.3102C32.8924 56.3991 32.8724 56.4876 32.8505 56.5759C32.8285 56.6641 32.8042 56.7517 32.7777 56.8386C32.7514 56.9255 32.7229 57.0118 32.6924 57.0974C32.6619 57.183 32.6291 57.2676 32.5943 57.3516C32.5595 57.4355 32.5228 57.5185 32.4838 57.6008C32.4451 57.6828 32.4041 57.7642 32.3614 57.8442C32.3185 57.9242 32.2735 58.0033 32.227 58.0813C32.1804 58.1591 32.1315 58.2358 32.081 58.3116C32.0308 58.387 31.9783 58.4615 31.9242 58.5343C31.8701 58.6074 31.8144 58.6789 31.7566 58.7491C31.6989 58.8193 31.6395 58.8882 31.5785 58.9554C31.5175 59.0227 31.4549 59.0886 31.3906 59.1529C31.3263 59.2171 31.2607 59.2798 31.1935 59.3408C31.1259 59.4018 31.0574 59.4612 30.9868 59.5189C30.9167 59.5763 30.8452 59.6324 30.772 59.6865C30.6992 59.7406 30.6247 59.7928 30.5493 59.8433C30.4739 59.8938 30.3971 59.9423 30.3191 59.9892C30.241 60.0358 30.162 60.0807 30.0819 60.1234C30.0019 60.1663 29.9206 60.207 29.8386 60.246C29.7566 60.2847 29.6733 60.3215 29.5893 60.3566C29.5053 60.3913 29.4207 60.4238 29.3351 60.4546C29.2495 60.4851 29.1632 60.5137 29.0763 60.5399C28.9894 60.5665 28.9018 60.5904 28.8136 60.6127C28.7257 60.6347 28.6371 60.6547 28.5479 60.6724C28.4587 60.6901 28.3692 60.7056 28.2793 60.719C28.1894 60.7325 28.0992 60.7433 28.009 60.7525C27.9185 60.7613 27.828 60.7679 27.7371 60.7725C27.6463 60.7767 27.5554 60.779 27.4646 60.779C27.3737 60.779 27.2829 60.7767 27.1924 60.7725C27.1015 60.7679 27.011 60.7613 26.9205 60.7525C26.8299 60.7433 26.7401 60.7325 26.6499 60.719C26.56 60.7056 26.4708 60.6901 26.3816 60.6724C26.2924 60.6547 26.2038 60.6347 26.1156 60.6127C26.0273 60.5904 25.9398 60.5665 25.8529 60.5399C25.7659 60.5137 25.6797 60.4851 25.5941 60.4546C25.5088 60.4238 25.4238 60.3913 25.3399 60.3566C25.2559 60.3215 25.1729 60.2847 25.0909 60.246C25.0086 60.207 24.9276 60.1663 24.8472 60.1234C24.7672 60.0807 24.6882 60.0358 24.6104 59.9892C24.5324 59.9423 24.4556 59.8938 24.3802 59.8433C24.3044 59.7928 24.2303 59.7406 24.1572 59.6865C24.0843 59.6324 24.0125 59.5763 23.9423 59.5189C23.8721 59.4612 23.8033 59.4018 23.736 59.3408C23.6688 59.2798 23.6029 59.2171 23.5386 59.1529C23.4743 59.0886 23.4116 59.0227 23.3506 58.9554C23.2896 58.8882 23.2306 58.8193 23.1729 58.7491C23.1151 58.6789 23.0594 58.6074 23.0053 58.5343C22.9512 58.4615 22.8987 58.387 22.8482 58.3116C22.7977 58.2358 22.7491 58.1591 22.7025 58.0813C22.6556 58.0033 22.611 57.9242 22.5681 57.8442C22.5254 57.7642 22.4844 57.6828 22.4457 57.6008C22.4067 57.5185 22.37 57.4355 22.3352 57.3516C22.3004 57.2676 22.2676 57.183 22.2371 57.0974C22.2063 57.0118 22.1781 56.9255 22.1515 56.8386C22.1253 56.7517 22.101 56.6641 22.079 56.5759C22.0567 56.4876 22.037 56.3991 22.0193 56.3102C22.0013 56.221 21.9859 56.1314 21.9724 56.0416C21.9593 55.9517 21.9482 55.8615 21.9393 55.771C21.9305 55.6808 21.9236 55.5899 21.9193 55.4994C21.9147 55.4086 21.9124 55.3177 21.9124 55.2269C21.9124 55.136 21.9147 55.0451 21.9193 54.9543C21.9236 54.8638 21.9305 54.7729 21.9393 54.6827C21.9482 54.5922 21.9593 54.502 21.9724 54.4121C21.9859 54.3223 22.0013 54.2327 22.0193 54.1438C22.037 54.0546 22.0567 53.9661 22.079 53.8778C22.101 53.7896 22.1253 53.702 22.1515 53.6151C22.1781 53.5282 22.2063 53.4419 22.2371 53.3563C22.2676 53.2707 22.3004 53.1861 22.3352 53.1022C22.37 53.0182 22.4067 52.9352 22.4457 52.8529C22.4844 52.7709 22.5254 52.6895 22.5681 52.6095C22.611 52.5295 22.6556 52.4504 22.7025 52.3724C22.7491 52.2946 22.7977 52.2179 22.8482 52.1421C22.8987 52.0667 22.9512 51.9922 23.0053 51.9194C23.0594 51.8463 23.1151 51.7748 23.1729 51.7046C23.2306 51.6344 23.2896 51.5655 23.3506 51.4983C23.4116 51.4311 23.4743 51.3651 23.5386 51.3008C23.6029 51.2366 23.6688 51.1739 23.736 51.1129C23.8033 51.0519 23.8721 50.9925 23.9423 50.9348C24.0125 50.8774 24.0843 50.8213 24.1572 50.7672C24.2303 50.7131 24.3044 50.6609 24.3802 50.6104C24.4556 50.5599 24.5324 50.5114 24.6104 50.4645C24.6882 50.4179 24.7672 50.373 24.8472 50.3303C24.9276 50.2874 25.0086 50.2467 25.0909 50.2077C25.1729 50.169 25.2559 50.1322 25.3399 50.0975C25.4238 50.0627 25.5088 50.0299 25.5941 49.9994C25.6797 49.9686 25.7659 49.94 25.8529 49.9138C25.9398 49.8872 26.0273 49.8633 26.1156 49.841C26.2038 49.819 26.2924 49.799 26.3816 49.7813C26.4708 49.7636 26.56 49.7482 26.6499 49.7347C26.7401 49.7216 26.8299 49.7104 26.9205 49.7012C27.011 49.6924 27.1015 49.6858 27.1924 49.6812C27.2829 49.677 27.3737 49.6747 27.4646 49.6747C27.5554 49.6747 27.6463 49.677 27.7371 49.6812C27.828 49.6858 27.9185 49.6924 28.009 49.7012C28.0992 49.7104 28.1894 49.7216 28.2793 49.7347C28.3692 49.7482 28.4587 49.7636 28.5479 49.7813C28.6371 49.799 28.7257 49.819 28.8139 49.841C28.9018 49.8633 28.9894 49.8872 29.0763 49.9138C29.1632 49.94 29.2495 49.9686 29.3351 49.9994C29.4207 50.0299 29.5053 50.0627 29.5893 50.0975C29.6733 50.1322 29.7566 50.169 29.8386 50.2077C29.9206 50.2467 30.0019 50.2874 30.0819 50.3303C30.162 50.373 30.241 50.4179 30.3191 50.4645C30.3971 50.5114 30.4739 50.5599 30.5493 50.6104C30.6247 50.6609 30.6992 50.7131 30.772 50.7672C30.8452 50.8213 30.9167 50.8774 30.9868 50.9348C31.0574 50.9925 31.1259 51.0519 31.1935 51.1129C31.2607 51.1739 31.3263 51.2366 31.3906 51.3008C31.4549 51.3651 31.5175 51.4311 31.5785 51.4983C31.6395 51.5655 31.6989 51.6344 31.7566 51.7046C31.8144 51.7748 31.8701 51.8463 31.9242 51.9194C31.9783 51.9922 32.0308 52.0667 32.081 52.1421C32.1315 52.2179 32.1804 52.2946 32.227 52.3724C32.2735 52.4504 32.3185 52.5295 32.3614 52.6095C32.4041 52.6895 32.4451 52.7709 32.4838 52.8529C32.5228 52.9352 32.5595 53.0182 32.5943 53.1022C32.6291 53.1861 32.6619 53.2707 32.6924 53.3563C32.7229 53.4419 32.7514 53.5282 32.7777 53.6151C32.8042 53.702 32.8285 53.7896 32.8505 53.8778C32.8724 53.9661 32.8924 54.0546 32.9102 54.1438C32.9279 54.2327 32.9436 54.3223 32.9567 54.4121C32.9702 54.502 32.9813 54.5922 32.9902 54.6827C32.999 54.7729 33.0056 54.8638 33.0102 54.9543C33.0148 55.0451 33.0168 55.136 33.0168 55.2269Z" fill="#3026C1"/>
<mask id="mask1_1_7606" style="mask-type:luminance" maskUnits="userSpaceOnUse" x="55" y="60" width="17" height="12">
<path d="M55.1703 60.6997H71.8848V71.8844H55.1703V60.6997Z" fill="white"/>
</mask>
<g mask="url(#mask1_1_7606)">
<path d="M63.553 63.5564C61.096 63.5564 58.8752 62.4874 57.3622 60.7803C56.0296 62.2516 55.2247 64.195 55.2247 66.3324V70.4966C55.2247 71.2601 55.8492 71.8846 56.6127 71.8846H70.4932C71.2564 71.8846 71.8812 71.2601 71.8812 70.4966V66.3324C71.8812 64.195 71.076 62.2516 69.7437 60.7803C68.2307 62.4874 66.0096 63.5564 63.553 63.5564Z" fill="#3026C1"/>
</g>
<mask id="mask2_1_7606" style="mask-type:luminance" maskUnits="userSpaceOnUse" x="55" y="30" width="17" height="12">
<path d="M55.1703 30.219H71.8848V41.3863H55.1703V30.219Z" fill="white"/>
</mask>
<g mask="url(#mask2_1_7606)">
<path d="M69.7441 30.2412C68.2311 31.9484 66.0099 33.0173 63.5533 33.0173C61.0964 33.0173 58.8756 31.9484 57.3626 30.2412C56.0299 31.7126 55.2251 33.6556 55.2251 35.7934V39.9575C55.2251 40.7207 55.8496 41.3456 56.6131 41.3456H70.4935C71.2568 41.3456 71.8816 40.7207 71.8816 39.9575V35.7934C71.8816 33.6556 71.0764 31.7126 69.7441 30.2412Z" fill="#3026C1"/>
</g>
<mask id="mask3_1_7606" style="mask-type:luminance" maskUnits="userSpaceOnUse" x="57" y="19" width="13" height="12">
<path d="M57.9344 19.1388H69.1857V30.3045H57.9344V19.1388Z" fill="white"/>
</mask>
<g mask="url(#mask3_1_7606)">
<path d="M69.1035 24.691C69.1035 24.7818 69.1012 24.8727 69.0966 24.9632C69.0923 25.054 69.0854 25.1446 69.0766 25.2351C69.0677 25.3256 69.0566 25.4155 69.0435 25.5057C69.03 25.5956 69.0146 25.6848 68.9969 25.774C68.9789 25.8632 68.9592 25.9517 68.9369 26.04C68.9149 26.1282 68.8906 26.2158 68.8644 26.3027C68.8378 26.3896 68.8096 26.4759 68.7788 26.5615C68.7483 26.6468 68.7155 26.7317 68.6807 26.8157C68.6459 26.8996 68.6092 26.9826 68.5702 27.0646C68.5315 27.1469 68.4908 27.2279 68.4478 27.3083C68.4049 27.3883 68.3603 27.4674 68.3134 27.5451C68.2668 27.6232 68.2182 27.6999 68.1677 27.7754C68.1172 27.8511 68.0648 27.9252 68.0106 27.9984C67.9565 28.0712 67.9008 28.143 67.843 28.2132C67.7856 28.2834 67.7263 28.3523 67.6653 28.4195C67.6043 28.4868 67.5416 28.5527 67.4773 28.617C67.413 28.6813 67.3471 28.7436 67.2799 28.8049C67.2126 28.8659 67.1438 28.925 67.0736 28.9827C67.0034 29.0404 66.9316 29.0962 66.8587 29.1503C66.7856 29.2044 66.7115 29.2569 66.6357 29.3074C66.5603 29.3579 66.4835 29.4064 66.4055 29.453C66.3277 29.4999 66.2487 29.5445 66.1687 29.5875C66.0883 29.6301 66.0073 29.6711 65.925 29.7098C65.843 29.7489 65.76 29.7856 65.676 29.8204C65.5921 29.8551 65.5071 29.8879 65.4218 29.9184C65.3362 29.9493 65.25 29.9775 65.163 30.004C65.0761 30.0303 64.9886 30.0545 64.9003 30.0765C64.8121 30.0988 64.7235 30.1185 64.6343 30.1362C64.5451 30.1543 64.4559 30.1697 64.366 30.1831C64.2762 30.1962 64.186 30.2074 64.0954 30.2162C64.0049 30.2251 63.9144 30.232 63.8235 30.2362C63.733 30.2408 63.6422 30.2431 63.5513 30.2431C63.4605 30.2431 63.3696 30.2408 63.2788 30.2362C63.1879 30.232 63.0974 30.2251 63.0069 30.2162C62.9167 30.2074 62.8265 30.1962 62.7366 30.1831C62.6467 30.1697 62.5572 30.1543 62.468 30.1362C62.3788 30.1185 62.2902 30.0988 62.2023 30.0765C62.1141 30.0545 62.0265 30.0303 61.9396 30.004C61.8527 29.9775 61.7664 29.9493 61.6808 29.9184C61.5952 29.8879 61.5106 29.8551 61.4266 29.8204C61.3426 29.7856 61.2593 29.7489 61.1773 29.7098C61.0953 29.6711 61.014 29.6301 60.934 29.5875C60.8539 29.5445 60.7749 29.4999 60.6968 29.453C60.6188 29.4064 60.542 29.3579 60.4666 29.3074C60.3912 29.2569 60.3167 29.2044 60.2439 29.1503C60.1708 29.0962 60.0992 29.0404 60.0291 28.9827C59.9589 28.925 59.89 28.8659 59.8228 28.8049C59.7552 28.7436 59.6896 28.6813 59.6253 28.617C59.561 28.5527 59.4984 28.4868 59.4374 28.4195C59.3764 28.3523 59.317 28.2834 59.2593 28.2132C59.2015 28.143 59.1458 28.0712 59.0917 27.9984C59.0376 27.9252 58.9851 27.8511 58.9349 27.7754C58.8844 27.6999 58.8355 27.6232 58.7889 27.5451C58.7424 27.4674 58.6974 27.3883 58.6545 27.3083C58.6118 27.2279 58.5708 27.1469 58.5321 27.0646C58.4931 26.9826 58.4564 26.8996 58.4216 26.8157C58.3868 26.7317 58.3544 26.6468 58.3235 26.5615C58.293 26.4759 58.2645 26.3896 58.2382 26.3027C58.2117 26.2158 58.1874 26.1282 58.1654 26.04C58.1435 25.9517 58.1235 25.8632 58.1057 25.774C58.088 25.6848 58.0726 25.5956 58.0592 25.5057C58.0457 25.4155 58.0346 25.3256 58.0257 25.2351C58.0169 25.1446 58.0103 25.054 58.0057 24.9632C58.0011 24.8727 57.9991 24.7818 57.9991 24.691C57.9991 24.6001 58.0011 24.5093 58.0057 24.4184C58.0103 24.3276 58.0169 24.237 58.0257 24.1465C58.0346 24.0563 58.0457 23.9661 58.0592 23.8762C58.0726 23.7864 58.088 23.6968 58.1057 23.6076C58.1235 23.5184 58.1435 23.4299 58.1654 23.3416C58.1874 23.2537 58.2117 23.1662 58.2382 23.0792C58.2645 22.9923 58.293 22.9061 58.3235 22.8205C58.3544 22.7348 58.3868 22.6502 58.4216 22.5663C58.4564 22.4823 58.4931 22.399 58.5321 22.317C58.5708 22.235 58.6118 22.1537 58.6545 22.0736C58.6974 21.9936 58.7424 21.9146 58.7889 21.8365C58.8355 21.7584 58.8844 21.6817 58.9349 21.6062C58.9851 21.5308 59.0376 21.4564 59.0917 21.3835C59.1458 21.3104 59.2015 21.2389 59.2593 21.1687C59.317 21.0982 59.3764 21.0296 59.4374 20.9621C59.4984 20.8948 59.561 20.8292 59.6253 20.765C59.6896 20.7007 59.7552 20.638 59.8228 20.577C59.89 20.516 59.9589 20.4566 60.0291 20.3989C60.0992 20.3412 60.1708 20.2854 60.2439 20.2313C60.3167 20.1772 60.3912 20.1247 60.4666 20.0745C60.542 20.024 60.6188 19.9752 60.6968 19.9286C60.7749 19.882 60.8539 19.8371 60.934 19.7941C61.014 19.7515 61.0953 19.7105 61.1773 19.6718C61.2593 19.6327 61.3426 19.596 61.4266 19.5612C61.5106 19.5265 61.5952 19.4937 61.6808 19.4632C61.7664 19.4327 61.8527 19.4041 61.9396 19.3779C62.0265 19.3513 62.1141 19.3271 62.2023 19.3051C62.2902 19.2831 62.3788 19.2631 62.468 19.2454C62.5572 19.2277 62.6467 19.2119 62.7366 19.1988C62.8265 19.1854 62.9167 19.1742 63.0069 19.1654C63.0974 19.1565 63.1879 19.1499 63.2788 19.1454C63.3696 19.1408 63.4605 19.1388 63.5513 19.1388C63.6422 19.1388 63.733 19.1408 63.8235 19.1454C63.9144 19.1499 64.0049 19.1565 64.0954 19.1654C64.186 19.1742 64.2762 19.1854 64.366 19.1988C64.4559 19.2119 64.5451 19.2277 64.6343 19.2454C64.7235 19.2631 64.8121 19.2831 64.9003 19.3051C64.9886 19.3271 65.0761 19.3513 65.163 19.3779C65.25 19.4041 65.3362 19.4327 65.4218 19.4632C65.5071 19.4937 65.5921 19.5265 65.676 19.5612C65.76 19.596 65.843 19.6327 65.925 19.6718C66.0073 19.7105 66.0883 19.7515 66.1687 19.7941C66.2487 19.8371 66.3277 19.882 66.4055 19.9286C66.4835 19.9752 66.5603 20.024 66.6357 20.0745C66.7115 20.1247 66.7856 20.1772 66.8587 20.2313C66.9316 20.2854 67.0034 20.3412 67.0736 20.3989C67.1438 20.4566 67.2126 20.516 67.2799 20.577C67.3471 20.638 67.413 20.7007 67.4773 20.765C67.5416 20.8292 67.6043 20.8948 67.6653 20.9621C67.7263 21.0296 67.7856 21.0982 67.843 21.1687C67.9008 21.2389 67.9565 21.3104 68.0106 21.3835C68.0648 21.4564 68.1172 21.5308 68.1677 21.6062C68.2182 21.6817 68.2668 21.7584 68.3134 21.8365C68.3603 21.9146 68.4049 21.9936 68.4478 22.0736C68.4908 22.1537 68.5315 22.235 68.5702 22.317C68.6092 22.399 68.6459 22.4823 68.6807 22.5663C68.7155 22.6502 68.7483 22.7348 68.7788 22.8205C68.8096 22.9061 68.8378 22.9923 68.8644 23.0792C68.8906 23.1662 68.9149 23.2537 68.9369 23.3416C68.9592 23.4299 68.9789 23.5184 68.9969 23.6076C69.0146 23.6968 69.03 23.7864 69.0435 23.8762C69.0566 23.9661 69.0677 24.0563 69.0766 24.1465C69.0854 24.237 69.0923 24.3276 69.0966 24.4184C69.1012 24.5093 69.1035 24.6001 69.1035 24.691Z" fill="#3026C1"/>
</g>
<mask id="mask4_1_7606" style="mask-type:luminance" maskUnits="userSpaceOnUse" x="19" y="30" width="17" height="17">
<path d="M19.136 30.219H35.8555V46.928H19.136V30.219Z" fill="white"/>
</mask>
<g mask="url(#mask4_1_7606)">
<path d="M27.4642 33.0178C25.0076 33.0178 22.7865 31.9489 21.2735 30.2417C19.9412 31.7131 19.136 33.656 19.136 35.7939V39.958C19.136 40.7212 19.7608 41.346 20.524 41.346H26.0762V45.5102C26.0762 46.2767 26.6977 46.8982 27.4642 46.8982H34.4045C35.1713 46.8982 35.7925 46.2767 35.7925 45.5102C35.7925 44.7437 35.1713 44.1221 34.4045 44.1221H28.8523V41.346H34.4045C35.168 41.346 35.7925 40.7212 35.7925 39.958V35.7939C35.7925 33.656 34.9876 31.7131 33.655 30.2417C32.142 31.9489 29.9212 33.0178 27.4642 33.0178Z" fill="#3026C1"/>
</g>
<mask id="mask5_1_7606" style="mask-type:luminance" maskUnits="userSpaceOnUse" x="21" y="19" width="13" height="12">
<path d="M21.8366 19.1388H33.0879V30.3045H21.8366V19.1388Z" fill="white"/>
</mask>
<g mask="url(#mask5_1_7606)">
<path d="M33.0183 24.691C33.0183 24.7818 33.0163 24.8727 33.0117 24.9632C33.0071 25.054 33.0005 25.1446 32.9917 25.2351C32.9828 25.3256 32.9717 25.4155 32.9582 25.5057C32.9451 25.5956 32.9294 25.6848 32.9117 25.774C32.8939 25.8632 32.8739 25.9517 32.852 26.04C32.83 26.1282 32.8057 26.2158 32.7791 26.3027C32.7529 26.3896 32.7244 26.4759 32.6939 26.5615C32.6634 26.6468 32.6306 26.7317 32.5958 26.8157C32.561 26.8996 32.5243 26.9826 32.4853 27.0646C32.4466 27.1469 32.4056 27.2279 32.3629 27.3083C32.32 27.3883 32.275 27.4674 32.2285 27.5451C32.1819 27.6232 32.133 27.6999 32.0825 27.7754C32.0323 27.8511 31.9798 27.9252 31.9257 27.9984C31.8716 28.0712 31.8159 28.143 31.7581 28.2132C31.7004 28.2834 31.641 28.3523 31.58 28.4195C31.519 28.4868 31.4564 28.5527 31.3921 28.617C31.3278 28.6813 31.2622 28.7436 31.195 28.8049C31.1274 28.8659 31.0589 28.925 30.9883 28.9827C30.9181 29.0404 30.8466 29.0962 30.7735 29.1503C30.7007 29.2044 30.6262 29.2569 30.5508 29.3074C30.4754 29.3579 30.3986 29.4064 30.3206 29.453C30.2425 29.4999 30.1634 29.5445 30.0834 29.5875C30.0034 29.6301 29.9221 29.6711 29.8401 29.7098C29.7581 29.7489 29.6747 29.7856 29.5908 29.8204C29.5068 29.8551 29.4222 29.8879 29.3366 29.9184C29.251 29.9493 29.1647 29.9775 29.0778 30.004C28.9909 30.0303 28.9033 30.0545 28.8151 30.0765C28.7272 30.0988 28.6386 30.1185 28.5494 30.1362C28.4602 30.1543 28.3707 30.1697 28.2808 30.1831C28.1909 30.1962 28.1007 30.2074 28.0105 30.2162C27.92 30.2251 27.8295 30.232 27.7386 30.2362C27.6478 30.2408 27.5569 30.2431 27.4661 30.2431C27.3752 30.2431 27.2844 30.2408 27.1939 30.2362C27.103 30.232 27.0125 30.2251 26.9219 30.2162C26.8314 30.2074 26.7416 30.1962 26.6514 30.1831C26.5615 30.1697 26.4723 30.1543 26.3831 30.1362C26.2939 30.1185 26.2053 30.0988 26.1171 30.0765C26.0288 30.0545 25.9413 30.0303 25.8544 30.004C25.7674 29.9775 25.6812 29.9493 25.5956 29.9184C25.5103 29.8879 25.4253 29.8551 25.3414 29.8204C25.2574 29.7856 25.1744 29.7489 25.0924 29.7098C25.0101 29.6711 24.9291 29.6301 24.8487 29.5875C24.7687 29.5445 24.6897 29.4999 24.6119 29.453C24.5339 29.4064 24.4571 29.3579 24.3817 29.3074C24.3059 29.2569 24.2318 29.2044 24.1587 29.1503C24.0858 29.0962 24.014 29.0404 23.9438 28.9827C23.8736 28.925 23.8048 28.8659 23.7375 28.8049C23.6703 28.7436 23.6044 28.6813 23.5401 28.617C23.4758 28.5527 23.4131 28.4868 23.3521 28.4195C23.2911 28.3523 23.2321 28.2834 23.1744 28.2132C23.1166 28.143 23.0609 28.0712 23.0068 27.9984C22.9526 27.9252 22.9002 27.8511 22.8497 27.7754C22.7991 27.6999 22.7506 27.6232 22.704 27.5451C22.6571 27.4674 22.6125 27.3883 22.5696 27.3083C22.5269 27.2279 22.4859 27.1469 22.4472 27.0646C22.4082 26.9826 22.3715 26.8996 22.3367 26.8157C22.3019 26.7317 22.2691 26.6468 22.2386 26.5615C22.2078 26.4759 22.1796 26.3896 22.153 26.3027C22.1268 26.2158 22.1025 26.1282 22.0805 26.04C22.0582 25.9517 22.0385 25.8632 22.0208 25.774C22.0028 25.6848 21.9874 25.5956 21.9739 25.5057C21.9608 25.4155 21.9497 25.3256 21.9408 25.2351C21.9319 25.1446 21.9251 25.054 21.9208 24.9632C21.9162 24.8727 21.9139 24.7818 21.9139 24.691C21.9139 24.6001 21.9162 24.5093 21.9208 24.4184C21.9251 24.3276 21.9319 24.237 21.9408 24.1465C21.9497 24.0563 21.9608 23.9661 21.9739 23.8762C21.9874 23.7864 22.0028 23.6968 22.0208 23.6076C22.0385 23.5184 22.0582 23.4299 22.0805 23.3416C22.1025 23.2537 22.1268 23.1662 22.153 23.0792C22.1796 22.9923 22.2078 22.9061 22.2386 22.8205C22.2691 22.7348 22.3019 22.6502 22.3367 22.5663C22.3715 22.4823 22.4082 22.399 22.4472 22.317C22.4859 22.235 22.5269 22.1537 22.5696 22.0736C22.6125 21.9936 22.6571 21.9146 22.704 21.8365C22.7506 21.7584 22.7991 21.6817 22.8497 21.6062C22.9002 21.5308 22.9526 21.4564 23.0068 21.3835C23.0609 21.3104 23.1166 21.2389 23.1744 21.1687C23.2321 21.0982 23.2911 21.0296 23.3521 20.9621C23.4131 20.8948 23.4758 20.8292 23.5401 20.765C23.6044 20.7007 23.6703 20.638 23.7375 20.577C23.8048 20.516 23.8736 20.4566 23.9438 20.3989C24.014 20.3412 24.0858 20.2854 24.1587 20.2313C24.2318 20.1772 24.3059 20.1247 24.3817 20.0745C24.4571 20.024 24.5339 19.9752 24.6119 19.9286C24.6897 19.882 24.7687 19.8371 24.8487 19.7941C24.9291 19.7515 25.0101 19.7105 25.0924 19.6718C25.1744 19.6327 25.2574 19.596 25.3414 19.5612C25.4253 19.5265 25.5103 19.4937 25.5956 19.4632C25.6812 19.4327 25.7674 19.4041 25.8544 19.3779C25.9413 19.3513 26.0288 19.3271 26.1171 19.3051C26.2053 19.2831 26.2939 19.2631 26.3831 19.2454C26.4723 19.2277 26.5615 19.2119 26.6514 19.1988C26.7416 19.1854 26.8314 19.1742 26.9219 19.1654C27.0125 19.1565 27.103 19.1499 27.1939 19.1454C27.2844 19.1408 27.3752 19.1388 27.4661 19.1388C27.5569 19.1388 27.6478 19.1408 27.7386 19.1454C27.8295 19.1499 27.92 19.1565 28.0105 19.1654C28.1007 19.1742 28.1909 19.1854 28.2808 19.1988C28.3707 19.2119 28.4602 19.2277 28.5494 19.2454C28.6386 19.2631 28.7272 19.2831 28.8154 19.3051C28.9033 19.3271 28.9909 19.3513 29.0778 19.3779C29.1647 19.4041 29.251 19.4327 29.3366 19.4632C29.4222 19.4937 29.5068 19.5265 29.5908 19.5612C29.6747 19.596 29.7581 19.6327 29.8401 19.6718C29.9221 19.7105 30.0034 19.7515 30.0834 19.7941C30.1634 19.8371 30.2425 19.882 30.3206 19.9286C30.3986 19.9752 30.4754 20.024 30.5508 20.0745C30.6262 20.1247 30.7007 20.1772 30.7735 20.2313C30.8466 20.2854 30.9181 20.3412 30.9883 20.3989C31.0589 20.4566 31.1274 20.516 31.195 20.577C31.2622 20.638 31.3278 20.7007 31.3921 20.765C31.4564 20.8292 31.519 20.8948 31.58 20.9621C31.641 21.0296 31.7004 21.0982 31.7581 21.1687C31.8159 21.2389 31.8716 21.3104 31.9257 21.3835C31.9798 21.4564 32.0323 21.5308 32.0825 21.6062C32.133 21.6817 32.1819 21.7584 32.2285 21.8365C32.275 21.9146 32.32 21.9936 32.3629 22.0736C32.4056 22.1537 32.4466 22.235 32.4853 22.317C32.5243 22.399 32.561 22.4823 32.5958 22.5663C32.6306 22.6502 32.6634 22.7348 32.6939 22.8205C32.7244 22.9061 32.7529 22.9923 32.7791 23.0792C32.8057 23.1662 32.83 23.2537 32.852 23.3416C32.8739 23.4299 32.8939 23.5184 32.9117 23.6076C32.9294 23.6968 32.9451 23.7864 32.9582 23.8762C32.9717 23.9661 32.9828 24.0563 32.9917 24.1465C33.0005 24.237 33.0071 24.3276 33.0117 24.4184C33.0163 24.5093 33.0183 24.6001 33.0183 24.691Z" fill="#3026C1"/>
</g>
<path d="M45.5097 48.2863C43.0528 48.2863 40.832 47.2174 39.319 45.5103C37.9864 46.9816 37.1812 48.9249 37.1812 51.0624V55.2266C37.1812 55.9901 37.806 56.6146 38.5692 56.6146H52.45C53.2132 56.6146 53.838 55.9901 53.838 55.2266V51.0624C53.838 48.9249 53.0328 46.9816 51.7002 45.5103C50.1872 47.2174 47.9664 48.2863 45.5097 48.2863Z" fill="#3026C1"/>
<path d="M51.0633 39.9581C51.0633 40.0489 51.061 40.1398 51.0564 40.2303C51.0521 40.3211 51.0452 40.4117 51.0364 40.5022C51.0275 40.5927 51.0164 40.6829 51.0029 40.7728C50.9898 40.8626 50.974 40.9522 50.9563 41.0411C50.9386 41.1303 50.9189 41.2188 50.8966 41.3071C50.8747 41.3953 50.8504 41.4829 50.8242 41.5698C50.7976 41.6567 50.7691 41.743 50.7385 41.8286C50.708 41.9142 50.6752 41.9988 50.6405 42.0828C50.6057 42.1667 50.569 42.2497 50.5299 42.332C50.4912 42.414 50.4502 42.495 50.4076 42.5754C50.3646 42.6554 50.32 42.7345 50.2731 42.8125C50.2266 42.8903 50.178 42.967 50.1275 43.0428C50.077 43.1182 50.0245 43.1923 49.9704 43.2655C49.9163 43.3383 49.8605 43.4101 49.8028 43.4803C49.7451 43.5505 49.6857 43.6194 49.6247 43.6866C49.5637 43.7539 49.5011 43.8198 49.4368 43.8841C49.3728 43.9483 49.3069 44.011 49.2396 44.072C49.1721 44.133 49.1035 44.1924 49.0333 44.2498C48.9628 44.3075 48.8913 44.3636 48.8185 44.4177C48.7454 44.4718 48.6712 44.524 48.5955 44.5745C48.52 44.625 48.4433 44.6735 48.3652 44.7204C48.2875 44.767 48.2085 44.8116 48.1281 44.8546C48.0481 44.8975 47.9671 44.9382 47.8847 44.9772C47.8027 45.0159 47.7198 45.0527 47.6358 45.0875C47.5518 45.1222 47.4669 45.155 47.3813 45.1855C47.296 45.2163 47.2097 45.2449 47.1225 45.2711C47.0356 45.2974 46.948 45.3216 46.8601 45.3439C46.7719 45.3659 46.6833 45.3859 46.5941 45.4036C46.5049 45.4213 46.4153 45.4368 46.3255 45.4502C46.2356 45.4633 46.1454 45.4745 46.0552 45.4833C45.9647 45.4925 45.8742 45.4991 45.7833 45.5037C45.6925 45.5079 45.6019 45.5102 45.5111 45.5102C45.4199 45.5102 45.3294 45.5079 45.2385 45.5037C45.1477 45.4991 45.0572 45.4925 44.9666 45.4833C44.8764 45.4745 44.7862 45.4633 44.6964 45.4502C44.6065 45.4368 44.517 45.4213 44.4277 45.4036C44.3385 45.3859 44.25 45.3659 44.1617 45.3439C44.0738 45.3216 43.9863 45.2974 43.8994 45.2711C43.8121 45.2449 43.7259 45.2163 43.6406 45.1855C43.555 45.155 43.47 45.1222 43.3861 45.0875C43.3021 45.0527 43.2191 45.0159 43.1371 44.9772C43.0548 44.9382 42.9738 44.8975 42.8937 44.8546C42.8134 44.8116 42.7343 44.767 42.6566 44.7204C42.5786 44.6735 42.5018 44.625 42.4264 44.5745C42.3506 44.524 42.2765 44.4718 42.2033 44.4177C42.1305 44.3636 42.059 44.3075 41.9885 44.2498C41.9183 44.1924 41.8498 44.133 41.7822 44.072C41.715 44.011 41.649 43.9483 41.5851 43.8841C41.5208 43.8198 41.4581 43.7539 41.3971 43.6866C41.3361 43.6194 41.2768 43.5505 41.219 43.4803C41.1613 43.4101 41.1056 43.3383 41.0514 43.2655C40.9973 43.1923 40.9448 43.1182 40.8943 43.0428C40.8438 42.967 40.7953 42.8903 40.7487 42.8125C40.7018 42.7345 40.6572 42.6554 40.6142 42.5754C40.5716 42.495 40.5306 42.414 40.4919 42.332C40.4529 42.2497 40.4161 42.1667 40.3814 42.0828C40.3466 41.9988 40.3138 41.9142 40.2833 41.8286C40.2528 41.743 40.2243 41.6567 40.1977 41.5698C40.1715 41.4829 40.1472 41.3953 40.1252 41.3071C40.1029 41.2188 40.0832 41.1303 40.0655 41.0411C40.0478 40.9522 40.0321 40.8626 40.0189 40.7728C40.0055 40.6829 39.9943 40.5927 39.9855 40.5022C39.9766 40.4117 39.9697 40.3211 39.9655 40.2303C39.9609 40.1398 39.9586 40.0489 39.9586 39.9581C39.9586 39.8672 39.9609 39.7764 39.9655 39.6855C39.9697 39.595 39.9766 39.5041 39.9855 39.4139C39.9943 39.3234 40.0055 39.2332 40.0189 39.1433C40.0321 39.0535 40.0478 38.9639 40.0655 38.8747C40.0832 38.7858 40.1029 38.6969 40.1252 38.609C40.1472 38.5208 40.1715 38.4332 40.1977 38.3463C40.2243 38.2594 40.2528 38.1731 40.2833 38.0875C40.3138 38.0019 40.3466 37.9173 40.3814 37.8334C40.4161 37.7494 40.4529 37.6664 40.4919 37.5841C40.5306 37.5021 40.5716 37.4207 40.6142 37.3407C40.6572 37.2607 40.7018 37.1816 40.7487 37.1036C40.7953 37.0255 40.8438 36.9488 40.8943 36.8733C40.9448 36.7979 40.9973 36.7234 41.0514 36.6506C41.1056 36.5775 41.1613 36.506 41.219 36.4358C41.2768 36.3656 41.3361 36.2967 41.3971 36.2295C41.4581 36.1619 41.5208 36.0963 41.5851 36.032C41.649 35.9678 41.715 35.9051 41.7822 35.8441C41.8498 35.7831 41.9183 35.7237 41.9885 35.666C42.059 35.6086 42.1305 35.5525 42.2033 35.4984C42.2765 35.4443 42.3506 35.3921 42.4264 35.3416C42.5018 35.2911 42.5786 35.2426 42.6566 35.1957C42.7343 35.1491 42.8134 35.1042 42.8937 35.0615C42.9738 35.0186 43.0548 34.9779 43.1371 34.9389C43.2191 34.9002 43.3021 34.8631 43.3861 34.8283C43.47 34.7936 43.555 34.7611 43.6406 34.7303C43.7259 34.6998 43.8121 34.6712 43.8994 34.645C43.9863 34.6184 44.0738 34.5941 44.1617 34.5722C44.25 34.5502 44.3385 34.5302 44.4277 34.5125C44.517 34.4948 44.6065 34.4794 44.6964 34.4659C44.7862 34.4525 44.8764 34.4413 44.9666 34.4325C45.0572 34.4236 45.1477 34.417 45.2385 34.4124C45.3294 34.4082 45.4199 34.4059 45.5111 34.4059C45.6019 34.4059 45.6925 34.4082 45.7833 34.4124C45.8742 34.417 45.9647 34.4236 46.0552 34.4325C46.1454 34.4413 46.2356 34.4525 46.3255 34.4659C46.4153 34.4794 46.5049 34.4948 46.5941 34.5125C46.6833 34.5302 46.7719 34.5502 46.8601 34.5722C46.948 34.5941 47.0356 34.6184 47.1225 34.645C47.2097 34.6712 47.296 34.6998 47.3813 34.7303C47.4669 34.7611 47.5518 34.7936 47.6358 34.8283C47.7198 34.8631 47.8027 34.9002 47.8847 34.9389C47.9671 34.9779 48.0481 35.0186 48.1281 35.0615C48.2085 35.1042 48.2875 35.1491 48.3652 35.1957C48.4433 35.2426 48.52 35.2911 48.5955 35.3416C48.6712 35.3921 48.7454 35.4443 48.8185 35.4984C48.8913 35.5525 48.9628 35.6086 49.0333 35.666C49.1035 35.7237 49.1721 35.7831 49.2396 35.8441C49.3069 35.9051 49.3728 35.9678 49.4368 36.032C49.5011 36.0963 49.5637 36.1619 49.6247 36.2295C49.6857 36.2967 49.7451 36.3656 49.8028 36.4358C49.8605 36.506 49.9163 36.5775 49.9704 36.6506C50.0245 36.7234 50.077 36.7979 50.1275 36.8733C50.178 36.9488 50.2266 37.0255 50.2731 37.1036C50.32 37.1816 50.3646 37.2607 50.4076 37.3407C50.4502 37.4207 50.4912 37.5021 50.5299 37.5841C50.569 37.6664 50.6057 37.7494 50.6405 37.8334C50.6752 37.9173 50.708 38.0019 50.7385 38.0875C50.7691 38.1731 50.7976 38.2594 50.8242 38.3463C50.8504 38.4332 50.8747 38.5208 50.8966 38.609C50.9189 38.6969 50.9386 38.7858 50.9563 38.8747C50.974 38.9639 50.9898 39.0535 51.0029 39.1433C51.0164 39.2332 51.0275 39.3234 51.0364 39.4139C51.0452 39.5041 51.0521 39.595 51.0564 39.6855C51.061 39.7764 51.0633 39.8672 51.0633 39.9581Z" fill="#3026C1"/>
<mask id="mask6_1_7606" style="mask-type:luminance" maskUnits="userSpaceOnUse" x="44" y="19" width="12" height="13">
<path d="M44.0794 19.1388H55.2468V31.6479H44.0794V19.1388Z" fill="white"/>
</mask>
<g mask="url(#mask6_1_7606)">
<path d="M53.8344 19.1388H45.5062C44.7393 19.1388 44.1181 19.7603 44.1181 20.5268V30.2431C44.1181 31.0096 44.7393 31.6312 45.5062 31.6312C46.2727 31.6312 46.8942 31.0096 46.8942 30.2431V21.9149H53.8344C54.6009 21.9149 55.2225 21.2933 55.2225 20.5268C55.2225 19.7603 54.6009 19.1388 53.8344 19.1388Z" fill="#3026C1"/>
</g>
<path d="M63.5521 44.1216H56.6119C55.8454 44.1216 55.2238 44.7431 55.2238 45.5096C55.2238 46.2761 55.8454 46.8977 56.6119 46.8977H62.164V49.8709C59.776 50.4914 57.9999 52.646 57.9999 55.2259C57.9999 58.288 60.4906 60.7781 63.5521 60.7781C66.6135 60.7781 69.1042 58.288 69.1042 55.2259C69.1042 52.646 67.3279 50.4914 64.9401 49.8709V45.5096C64.9401 44.7431 64.3186 44.1216 63.5521 44.1216Z" fill="#3026C1"/>
<path d="M45.5104 59.3903C44.7436 59.3903 44.1224 60.0111 44.1224 60.7783V64.9424H39.9579C39.1914 64.9424 38.5699 65.5633 38.5699 66.3305C38.5699 67.0976 39.1914 67.7185 39.9579 67.7185H45.5104C46.2769 67.7185 46.8985 67.0976 46.8985 66.3305V60.7783C46.8985 60.0111 46.2769 59.3903 45.5104 59.3903Z" fill="#3026C1"/>
</svg>
