<svg width="136" height="32" viewBox="0 0 136 32" fill="none" xmlns="http://www.w3.org/2000/svg">
<path d="M14.7655 12.1542C12.2911 9.67971 8.26343 9.67959 5.78892 12.1542L3.66408 10.0292C7.3101 6.38264 13.2443 6.38281 16.8905 10.0291L14.7655 12.1542Z" fill="#89FC00"/>
<path d="M10.2772 25.9952C7.77882 25.9952 5.43026 25.0227 3.66391 23.256L5.78893 21.131C7.89754 23.2393 11.1344 23.5521 13.5764 22.0663L10.7218 19.2126L12.8471 17.0873L17.9532 22.1937L16.8906 23.256C15.1242 25.0227 12.7756 25.9952 10.2772 25.9952Z" fill="#89FC00"/>
<path d="M10.2772 14.9961C9.85518 14.9961 9.43396 15.1568 9.11255 15.478C8.47085 16.12 8.47085 17.1654 9.11255 17.8073C9.75536 18.4499 10.7991 18.4499 11.4419 17.8073C12.0836 17.1654 12.0836 16.12 11.4419 15.478C11.1205 15.1568 10.6993 14.9961 10.2772 14.9961ZM10.2772 21.2931C9.08614 21.2931 7.89476 20.839 6.98753 19.9324C5.17364 18.1185 5.17364 15.1669 6.98753 13.353C8.80199 11.5399 11.7525 11.5399 13.5669 13.353C15.3808 15.1669 15.3808 18.1185 13.5669 19.9324C12.6597 20.839 11.4683 21.2931 10.2772 21.2931Z" fill="#89FC00"/>
<path d="M1.21341 17.856C0.543206 17.1858 0.543206 16.099 1.21341 15.4292C1.88382 14.7588 2.97063 14.7588 3.64044 15.429C4.31085 16.099 4.31085 17.1858 3.64044 17.8562C2.97063 18.5264 1.88382 18.5264 1.21341 17.856Z" fill="#89FC00"/>
<path d="M16.9137 17.856C16.2435 17.1858 16.2435 16.099 16.9137 15.4292C17.5841 14.7588 18.6709 14.7588 19.3408 15.429C20.0112 16.099 20.0112 17.1858 19.3408 17.8562C18.6709 18.5264 17.5841 18.5264 16.9137 17.856Z" fill="#89FC00"/>
<path d="M25.885 12.6114C25.885 11.6084 26.1436 10.7229 26.6607 9.95501C27.1779 9.18709 27.891 8.59156 28.7999 8.16842C29.7246 7.72961 30.7903 7.5102 31.997 7.5102C33.1567 7.5102 34.1597 7.71393 35.006 8.1214C35.868 8.52887 36.534 9.10873 37.0042 9.86098C37.49 10.6132 37.7486 11.5065 37.7799 12.5409H34.7709C34.7396 11.8043 34.4732 11.2323 33.9717 10.8248C33.4702 10.4017 32.7963 10.1901 31.95 10.1901C31.0253 10.1901 30.2809 10.4017 29.7167 10.8248C29.1682 11.2323 28.894 11.7965 28.894 12.5174C28.894 13.1286 29.0585 13.6144 29.3876 13.9748C29.7324 14.3196 30.2653 14.5782 30.9862 14.7506L33.6896 15.3618C35.1627 15.6752 36.2597 16.2159 36.9807 16.9838C37.7016 17.7361 38.062 18.7548 38.062 20.0399C38.062 21.0899 37.8034 22.0145 37.2863 22.8138C36.7691 23.613 36.0325 24.2321 35.0765 24.6709C34.1362 25.094 33.0313 25.3056 31.7619 25.3056C30.5552 25.3056 29.4973 25.1019 28.5884 24.6944C27.6794 24.2713 26.9663 23.6836 26.4492 22.9313C25.9477 22.1791 25.6812 21.2936 25.6499 20.2749H28.6589C28.6746 20.9958 28.9567 21.5679 29.5052 21.991C30.0694 22.3985 30.8294 22.6022 31.7854 22.6022C32.7884 22.6022 33.5799 22.3985 34.1597 21.991C34.7552 21.5679 35.053 21.0115 35.053 20.3219C35.053 19.7264 34.8963 19.2563 34.5829 18.9115C34.2694 18.551 33.7601 18.3003 33.0549 18.1592L30.3279 17.548C28.8705 17.2346 27.7656 16.6704 27.0133 15.8555C26.2611 15.0249 25.885 13.9435 25.885 12.6114ZM40.361 30.3833V13.3871H43.0174L43.2054 15.1502C43.5502 14.4763 44.0831 13.9592 44.804 13.5987C45.5249 13.2226 46.3163 13.0345 47.1783 13.0345C48.291 13.0345 49.2469 13.2853 50.0462 13.7868C50.8611 14.2883 51.4959 14.9857 51.9503 15.879C52.4048 16.7723 52.6321 17.8301 52.6321 19.0525C52.6321 20.2593 52.4205 21.3328 51.9974 22.2731C51.5742 23.2134 50.9552 23.9578 50.1402 24.5063C49.341 25.0392 48.3615 25.3056 47.2018 25.3056C46.3398 25.3056 45.5484 25.141 44.8275 24.8119C44.1222 24.4828 43.5894 24.0283 43.229 23.4485V30.3833H40.361ZM43.2525 19.1936C43.2525 19.8831 43.3857 20.4943 43.6521 21.0272C43.9185 21.56 44.2946 21.9832 44.7805 22.2966C45.282 22.5944 45.8618 22.7433 46.52 22.7433C47.1939 22.7433 47.7738 22.5944 48.2596 22.2966C48.7454 21.9832 49.1137 21.56 49.3645 21.0272C49.6152 20.4943 49.7406 19.8831 49.7406 19.1936C49.7406 18.504 49.6152 17.8928 49.3645 17.36C49.1137 16.8271 48.7454 16.4118 48.2596 16.1141C47.7738 15.8006 47.1939 15.6439 46.52 15.6439C45.8618 15.6439 45.282 15.7928 44.7805 16.0905C44.2946 16.3883 43.9185 16.8036 43.6521 17.3365C43.3857 17.8693 43.2525 18.4883 43.2525 19.1936ZM54.2339 19.1701C54.2339 17.9633 54.5003 16.9055 55.0332 15.9965C55.566 15.0719 56.3026 14.351 57.2429 13.8338C58.1832 13.3166 59.2489 13.058 60.44 13.058C61.6467 13.058 62.7124 13.3166 63.637 13.8338C64.5773 14.351 65.3139 15.0719 65.8468 15.9965C66.3796 16.9055 66.646 17.9633 66.646 19.1701C66.646 20.3768 66.3796 21.4425 65.8468 22.3671C65.3139 23.2761 64.5773 23.9892 63.637 24.5063C62.7124 25.0235 61.6467 25.2821 60.44 25.2821C59.2489 25.2821 58.1832 25.0235 57.2429 24.5063C56.3026 23.9892 55.566 23.2761 55.0332 22.3671C54.5003 21.4425 54.2339 20.3768 54.2339 19.1701ZM57.1019 19.1701C57.1019 19.8753 57.2429 20.4943 57.525 21.0272C57.8228 21.56 58.2146 21.9753 58.7004 22.2731C59.2019 22.5709 59.7817 22.7197 60.44 22.7197C61.0982 22.7197 61.678 22.5709 62.1795 22.2731C62.681 21.9753 63.0728 21.56 63.3549 21.0272C63.637 20.4943 63.7781 19.8753 63.7781 19.1701C63.7781 18.4492 63.637 17.8301 63.3549 17.313C63.0728 16.7801 62.681 16.3648 62.1795 16.067C61.678 15.7693 61.0982 15.6204 60.44 15.6204C59.7817 15.6204 59.2019 15.7693 58.7004 16.067C58.2146 16.3648 57.8228 16.7801 57.525 17.313C57.2429 17.8301 57.1019 18.4492 57.1019 19.1701ZM76.2067 13.3401V15.9965H75.1489C74.0989 15.9965 73.2761 16.2786 72.6805 16.8428C72.085 17.3913 71.7873 18.2298 71.7873 19.3581V25H68.9193V13.4107H71.6227L71.8578 15.8085H71.5757C71.7324 15.0405 72.1007 14.4137 72.6805 13.9278C73.2604 13.442 74.0127 13.1991 74.9373 13.1991C75.141 13.1991 75.3448 13.2069 75.5485 13.2226C75.7522 13.2383 75.9716 13.2774 76.2067 13.3401ZM77.4552 13.3871H84.7896V15.7849H77.4552V13.3871ZM82.5564 25H79.6884V9.76695H82.5564V25ZM85.7028 21.4738H88.4297C88.4453 21.9753 88.6334 22.375 88.9939 22.6727C89.3543 22.9705 89.8558 23.1194 90.4984 23.1194C91.1879 23.1194 91.7051 22.994 92.0499 22.7433C92.4103 22.4925 92.5905 22.1556 92.5905 21.7324C92.5905 21.4503 92.4965 21.1996 92.3085 20.9802C92.1204 20.7608 91.7678 20.5962 91.2506 20.4865L89.1584 19.9928C88.1084 19.7578 87.3248 19.3816 86.8076 18.8645C86.3061 18.3316 86.0554 17.6029 86.0554 16.6782C86.0554 15.926 86.2513 15.2756 86.6431 14.7271C87.0505 14.1786 87.5991 13.7633 88.2886 13.4812C88.9782 13.1834 89.7696 13.0345 90.6629 13.0345C91.5249 13.0345 92.2849 13.1913 92.9432 13.5047C93.6014 13.8181 94.1107 14.2569 94.4712 14.8211C94.8473 15.3853 95.0432 16.0435 95.0589 16.7958H92.332C92.332 16.2943 92.1752 15.9025 91.8618 15.6204C91.5484 15.3226 91.1096 15.1737 90.5454 15.1737C89.9812 15.1737 89.5424 15.2991 89.2289 15.5499C88.9155 15.8006 88.7588 16.1376 88.7588 16.5607C88.7588 17.2032 89.2603 17.6421 90.2633 17.8771L92.3555 18.3708C93.3271 18.5902 94.0559 18.9428 94.5417 19.4287C95.0432 19.9145 95.2939 20.604 95.2939 21.4973C95.2939 22.2809 95.0902 22.9627 94.6827 23.5425C94.2753 24.1067 93.7032 24.5455 92.9667 24.859C92.2301 25.1567 91.3838 25.3056 90.4278 25.3056C88.986 25.3056 87.8341 24.953 86.9722 24.2478C86.1259 23.5425 85.7028 22.6179 85.7028 21.4738ZM98.9641 13.3871L102.749 24.1067L101.197 27.0452L95.9316 13.3871H98.9641ZM96.2372 30.3833V28.009H97.9533C98.3294 28.009 98.6585 27.962 98.9406 27.868C99.2227 27.7896 99.4734 27.6329 99.6928 27.3978C99.9279 27.1627 100.124 26.8179 100.281 26.3635L105.1 13.3871H108.062L102.373 27.5859C101.95 28.6515 101.417 29.4273 100.774 29.9131C100.132 30.399 99.3324 30.6419 98.3764 30.6419C97.9689 30.6419 97.585 30.6184 97.2245 30.5713C96.8797 30.54 96.5506 30.4773 96.2372 30.3833ZM112.559 25H109.691V13.3871H112.347L112.582 14.8916C112.943 14.3118 113.452 13.8573 114.11 13.5282C114.784 13.1991 115.513 13.0345 116.296 13.0345C117.754 13.0345 118.851 13.4655 119.587 14.3275C120.34 15.1894 120.716 16.3648 120.716 17.8536V25H117.848V18.5354C117.848 17.5637 117.628 16.8428 117.19 16.3726C116.751 15.8868 116.155 15.6439 115.403 15.6439C114.51 15.6439 113.812 15.926 113.311 16.4902C112.809 17.0544 112.559 17.8066 112.559 18.7469V25ZM122.852 19.1701C122.852 17.979 123.095 16.9212 123.581 15.9965C124.082 15.0719 124.764 14.351 125.626 13.8338C126.503 13.301 127.514 13.0345 128.658 13.0345C130.241 13.0345 131.534 13.4498 132.537 14.2804C133.556 15.0954 134.143 16.2002 134.3 17.595H131.432C131.26 16.9368 130.939 16.4432 130.468 16.1141C130.014 15.7693 129.442 15.5969 128.752 15.5969C128.157 15.5969 127.624 15.7458 127.154 16.0435C126.699 16.3256 126.347 16.7331 126.096 17.2659C125.845 17.7988 125.72 18.4335 125.72 19.1701C125.72 19.9066 125.837 20.5414 126.072 21.0742C126.308 21.607 126.644 22.0223 127.083 22.3201C127.538 22.6022 128.071 22.7433 128.682 22.7433C129.403 22.7433 129.998 22.5709 130.468 22.2261C130.954 21.8813 131.276 21.3876 131.432 20.7451H134.324C134.198 21.6541 133.877 22.4533 133.36 23.1429C132.858 23.8168 132.208 24.3496 131.409 24.7414C130.609 25.1175 129.7 25.3056 128.682 25.3056C127.506 25.3056 126.48 25.0549 125.602 24.5534C124.725 24.0362 124.043 23.3231 123.557 22.4141C123.087 21.4895 122.852 20.4081 122.852 19.1701Z" fill="white"/>
</svg>
