<svg width="154" height="32" viewBox="0 0 154 32" fill="none" xmlns="http://www.w3.org/2000/svg">
  <path d="M14.7655 12.1542C12.2911 9.67971 8.26343 9.67959 5.78892 12.1542L3.66408 10.0292C7.3101 6.38264 13.2443 6.38281 16.8905 10.0291L14.7655 12.1542Z" fill="#89FC00"/>
  <path d="M10.2772 25.9952C7.77882 25.9952 5.43026 25.0227 3.66391 23.256L5.78893 21.131C7.89754 23.2393 11.1344 23.5521 13.5764 22.0663L10.7218 19.2126L12.8471 17.0873L17.9532 22.1937L16.8906 23.256C15.1242 25.0227 12.7756 25.9952 10.2772 25.9952Z" fill="#89FC00"/>
  <path d="M10.2772 14.9961C9.85518 14.9961 9.43396 15.1568 9.11255 15.478C8.47085 16.12 8.47085 17.1654 9.11255 17.8073C9.75536 18.4499 10.7991 18.4499 11.4419 17.8073C12.0836 17.1654 12.0836 16.12 11.4419 15.478C11.1205 15.1568 10.6993 14.9961 10.2772 14.9961ZM10.2772 21.2931C9.08614 21.2931 7.89476 20.839 6.98753 19.9324C5.17364 18.1185 5.17364 15.1669 6.98753 13.353C8.80199 11.5399 11.7525 11.5399 13.5669 13.353C15.3808 15.1669 15.3808 18.1185 13.5669 19.9324C12.6597 20.839 11.4683 21.2931 10.2772 21.2931Z" fill="#89FC00"/>
  <path d="M1.21341 17.856C0.543206 17.1858 0.543206 16.099 1.21341 15.4292C1.88382 14.7588 2.97063 14.7588 3.64044 15.429C4.31085 16.099 4.31085 17.1858 3.64044 17.8562C2.97063 18.5264 1.88382 18.5264 1.21341 17.856Z" fill="#89FC00"/>
  <path d="M16.9137 17.856C16.2435 17.1858 16.2435 16.099 16.9137 15.4292C17.5841 14.7588 18.6709 14.7588 19.3408 15.429C20.0112 16.099 20.0112 17.1858 19.3408 17.8562C18.6709 18.5264 17.5841 18.5264 16.9137 17.856Z" fill="#89FC00"/>
  <text
    x="26"
    y="22.5"
    fill="white"
    font-family="Arial, Helvetica, sans-serif"
    font-size="18"
    font-weight="700"
    letter-spacing="-0.02em"
  >
    SportSync
  </text>
</svg>
