<svg width="91" height="95" viewBox="0 0 91 95" fill="none" xmlns="http://www.w3.org/2000/svg">
<rect width="90.6437" height="94.1984" rx="45.3219" fill="#89FC00" fill-opacity="0.42"/>
<path d="M45.3211 18.3083C39.6268 18.3083 34.0603 19.9969 29.3255 23.1606C24.5908 26.3242 20.9006 30.8208 18.7214 36.0817C16.5423 41.3426 15.9721 47.1316 17.083 52.7166C18.194 58.3015 20.9361 63.4317 24.9626 67.4582C28.9891 71.4847 34.1193 74.2269 39.7042 75.3378C45.2892 76.4487 51.0782 75.8785 56.3391 73.6994C61.6 71.5202 66.0966 67.83 69.2603 63.0953C72.4239 58.3606 74.1125 52.7941 74.1125 47.0997C74.1044 39.4662 71.0685 32.1477 65.6708 26.75C60.2731 21.3524 52.9546 18.3164 45.3211 18.3083ZM30.394 66.34C31.9961 63.8343 34.2033 61.7722 36.812 60.3438C39.4207 58.9155 42.347 58.1668 45.3211 58.1668C48.2953 58.1668 51.2216 58.9155 53.8303 60.3438C56.439 61.7722 58.6462 63.8343 60.2483 66.34C55.9804 69.6593 50.7279 71.4614 45.3211 71.4614C39.9144 71.4614 34.6619 69.6593 30.394 66.34ZM36.4623 44.885C36.4623 43.1328 36.9818 41.4201 37.9553 39.9632C38.9287 38.5064 40.3123 37.3709 41.931 36.7004C43.5498 36.0299 45.331 35.8545 47.0494 36.1963C48.7679 36.5381 50.3464 37.3819 51.5853 38.6208C52.8242 39.8597 53.668 41.4382 54.0098 43.1567C54.3516 44.8751 54.1762 46.6563 53.5057 48.2751C52.8352 49.8938 51.6997 51.2774 50.2429 52.2508C48.786 53.2243 47.0733 53.7438 45.3211 53.7438C42.9716 53.7438 40.7183 52.8105 39.057 51.1491C37.3956 49.4878 36.4623 47.2345 36.4623 44.885ZM63.5261 63.2699C61.0561 59.6905 57.5829 56.9214 53.5433 55.3107C55.7132 53.6017 57.2966 51.2589 58.0733 48.6082C58.85 45.9575 58.7814 43.1306 57.877 40.5207C56.9726 37.9108 55.2774 35.6476 53.0271 34.0458C50.7768 32.444 48.0833 31.5833 45.3211 31.5833C42.559 31.5833 39.8655 32.444 37.6152 34.0458C35.3649 35.6476 33.6697 37.9108 32.7653 40.5207C31.8609 43.1306 31.7923 45.9575 32.569 48.6082C33.3457 51.2589 34.9291 53.6017 37.099 55.3107C33.0594 56.9214 29.5862 59.6905 27.1162 63.2699C23.995 59.76 21.955 55.4227 21.2418 50.7803C20.5286 46.1378 21.1726 41.3882 23.0962 37.1033C25.0199 32.8184 28.1412 29.1809 32.0844 26.6289C36.0275 24.0768 40.6242 22.7191 45.3211 22.7191C50.0181 22.7191 54.6148 24.0768 58.5579 26.6289C62.5011 29.1809 65.6224 32.8184 67.5461 37.1033C69.4697 41.3882 70.1137 46.1378 69.4005 50.7803C68.6873 55.4227 66.6473 59.76 63.5261 63.2699Z" fill="#3026C1"/>
</svg>
